<svg xmlns="http://www.w3.org/2000/svg" width="163" height="154.903" viewBox="0 0 163 154.903">
  <g id="banquet" transform="translate(-6 -18.121)">
    <path id="Path_783" data-name="Path 783" d="M134.309,79.23c.059,0,.118-.009.178-.009a8.593,8.593,0,0,1,6.642,3.122V79.474H138.54a10.121,10.121,0,0,1-4.231-.93Z" transform="translate(-42.594 -20.058)" fill="#4671c6"/>
    <path id="Path_784" data-name="Path 784" d="M47.418,76.287c.06,0,.118.007.178.009V73.663a27.827,27.827,0,0,1,.287-3.959H42.517v8.113A8.582,8.582,0,0,1,47.418,76.287Z" transform="translate(-12.122 -17.124)" fill="#4671c6"/>
    <path id="Path_785" data-name="Path 785" d="M195.461,83.248h-9.284V82.016a4.642,4.642,0,1,1,9.284,0v1.232Z" transform="translate(-59.813 -19.67)" fill="#ffea92"/>
    <path id="Path_786" data-name="Path 786" d="M209.9,143.174H141.792a2.134,2.134,0,0,1-2.134-2.134v-.707a2.134,2.134,0,0,1,2.134-2.134H209.9a2.134,2.134,0,0,1,2.134,2.134v.707A2.133,2.133,0,0,1,209.9,143.174Z" transform="translate(-44.37 -39.862)" fill="#ffea92"/>
    <path id="Path_787" data-name="Path 787" d="M209.9,143.174H141.792a2.134,2.134,0,0,1-2.134-2.134v-.707a2.134,2.134,0,0,1,2.134-2.134H209.9a2.134,2.134,0,0,1,2.134,2.134v.707A2.133,2.133,0,0,1,209.9,143.174Z" transform="translate(-44.37 -39.862)" fill="#ffea92"/>
    <path id="Path_788" data-name="Path 788" d="M189.509,91.053v1.209c.383-.014.766-.029,1.152-.029h2.527c.387,0,.77.015,1.152.029V91.053Z" transform="translate(-60.919 -24.211)" fill="#ffea92"/>
    <path id="Path_789" data-name="Path 789" d="M194.8,83.92h-9.283a1.337,1.337,0,0,1-1.336-1.336V81.353a5.978,5.978,0,1,1,11.955,0v1.231A1.336,1.336,0,0,1,194.8,83.92Zm-7.945-2.672h6.608a3.305,3.305,0,0,0-6.608,0Z" transform="translate(-59.149 -19.006)" fill="#3762cc"/>
    <path id="Path_790" data-name="Path 790" d="M209.236,143.847H141.129a3.475,3.475,0,0,1-3.47-3.47v-.707a3.474,3.474,0,0,1,3.47-3.47h68.107a3.475,3.475,0,0,1,3.47,3.47v.707A3.474,3.474,0,0,1,209.236,143.847Zm-68.107-4.976a.8.8,0,0,0-.8.8v.707a.8.8,0,0,0,.8.8h68.107a.8.8,0,0,0,.8-.8v-.707a.8.8,0,0,0-.8-.8Z" transform="translate(-43.706 -39.198)" fill="#3762cc"/>
    <path id="Path_791" data-name="Path 791" d="M178.7,92.82H176.17a30.315,30.315,0,0,0-30.315,30.315H209.01A30.314,30.314,0,0,0,178.7,92.82Z" transform="translate(-46.427 -24.798)" fill="#e0ebfc"/>
    <path id="Path_792" data-name="Path 792" d="M139.059,168.791V199.97h22.288l-23.29-45.657a14.28,14.28,0,0,1,1,5.241v9.237Z" transform="translate(-43.839 -45.211)" fill="#4671c6"/>
    <path id="Path_793" data-name="Path 793" d="M136.114,150.505v.014c.014.021.027.045.04.066Z" transform="translate(-43.194 -43.947)" fill="#4671c6"/>
    <path id="Path_794" data-name="Path 794" d="M160.683,200.644H138.395a1.337,1.337,0,0,1-1.336-1.336V158.891a12.935,12.935,0,0,0-.909-4.752,1.336,1.336,0,0,1,2.434-1.1l23.29,45.657a1.336,1.336,0,0,1-1.19,1.943Zm-20.952-2.672H158.5l-18.77-36.8Z" transform="translate(-43.175 -44.548)" fill="#3762cc"/>
    <path id="Path_795" data-name="Path 795" d="M135.493,151.26a1.335,1.335,0,0,1-1.128-.619c-.009-.014-.038-.062-.046-.077a1.279,1.279,0,0,1-.2-.583,1.338,1.338,0,0,1,2.518-.747l.041.08a1.338,1.338,0,0,1-1.189,1.946Z" transform="translate(-42.53 -43.286)" fill="#3762cc"/>
    <path id="Path_796" data-name="Path 796" d="M111.221,140.689v0h.031Z" transform="translate(-34.93 -40.689)" fill="#4671c6"/>
    <path id="Path_797" data-name="Path 797" d="M93.783,140.691h-.316L76.5,178.114,59.529,140.692h-.316a14.342,14.342,0,0,0-14.341,14.341v40.415h63.253V155.033a14.342,14.342,0,0,0-14.341-14.342Z" transform="translate(-12.904 -40.689)" fill="#4671c6"/>
    <path id="Path_798" data-name="Path 798" d="M107.461,196.121H44.208a1.337,1.337,0,0,1-1.336-1.336V154.369a15.7,15.7,0,0,1,15.677-15.677h.317a1.335,1.335,0,0,1,1.216.784l15.752,34.739,15.752-34.738a1.335,1.335,0,0,1,1.216-.784h.317A15.7,15.7,0,0,1,108.8,154.37v40.416A1.336,1.336,0,0,1,107.461,196.121Zm-61.917-2.672h60.581v-39.08a13.021,13.021,0,0,0-12.465-12.995L77.052,178a1.336,1.336,0,0,1-2.433,0L58.011,141.375a13.021,13.021,0,0,0-12.465,12.995v39.08Z" transform="translate(-12.24 -40.026)" fill="#3762cc"/>
    <path id="Path_799" data-name="Path 799" d="M100.75,140.691H66.813l16.969,37.423Z" transform="translate(-20.188 -40.689)" fill="#e0ebfc"/>
    <path id="Path_800" data-name="Path 800" d="M53.768,144.755v-.015l-.059.058Z" transform="translate(-15.838 -42.033)" fill="#4671c6"/>
    <path id="Path_801" data-name="Path 801" d="M32.632,180.868V157.787a14.263,14.263,0,0,1,3.034-8.8L9.22,174.591A4.008,4.008,0,0,0,8,177.47v16.724a4.008,4.008,0,0,0,4.008,4.008H32.632V180.868Z" transform="translate(-0.664 -43.444)" fill="#4671c6"/>
    <path id="Path_802" data-name="Path 802" d="M85.823,143.816l7.894-5.808,4.866-3.58h.042V132.61a28.381,28.381,0,0,1-25.514,0v1.821l4.866,3.58Z" transform="translate(-22.279 -38.006)" fill="#f9cfcf"/>
    <path id="Path_803" data-name="Path 803" d="M102.187,64.406c-.06,0-.118.008-.178.009V61.782a28.122,28.122,0,0,0-56.242,0v2.633c-.059,0-.118-.009-.178-.009a8.5,8.5,0,1,0,0,17,8.723,8.723,0,0,0,.921-.051,28.177,28.177,0,0,0,54.756,0,8.723,8.723,0,0,0,.921.051,8.5,8.5,0,1,0,0-17Z" transform="translate(-10.295 -5.243)" fill="#f9cfcf"/>
    <path id="Path_804" data-name="Path 804" d="M67.651,93.935a3.4,3.4,0,0,1-3.395-3.394V84.883a3.395,3.395,0,1,1,6.789,0v5.658A3.4,3.4,0,0,1,67.651,93.935Z" transform="translate(-19.339 -21.036)" fill="#3762cc"/>
    <path id="Path_805" data-name="Path 805" d="M113.2,93.935a3.4,3.4,0,0,1-3.395-3.394V84.883a3.395,3.395,0,1,1,6.789,0v5.658A3.4,3.4,0,0,1,113.2,93.935Z" transform="translate(-34.462 -21.036)" fill="#3762cc"/>
    <path id="Path_806" data-name="Path 806" d="M73.224,103.547a29.274,29.274,0,0,1-28.4-21.465,9.834,9.834,0,0,1-1.055-19.609V61.118a29.458,29.458,0,0,1,58.914,0v1.355a9.834,9.834,0,0,1-1.054,19.609A29.273,29.273,0,0,1,73.224,103.547ZM45.847,79.359a1.337,1.337,0,0,1,1.3,1.03,26.84,26.84,0,0,0,52.154,0,1.333,1.333,0,0,1,1.441-1.023,7.4,7.4,0,0,0,.78.043,7.166,7.166,0,1,0,.017-14.332c-.069,0-.117.008-.165.009a1.337,1.337,0,0,1-1.365-1.336V61.117a26.786,26.786,0,0,0-53.569,0v2.633a1.337,1.337,0,0,1-1.365,1.336c-.049,0-.1,0-.148-.007h0a7.166,7.166,0,1,0,0,14.331,7.4,7.4,0,0,0,.78-.043,1.131,1.131,0,0,1,.142-.008Z" transform="translate(-9.63 -4.579)" fill="#3762cc"/>
    <path id="Path_807" data-name="Path 807" d="M90.034,115.1H87.467a1.334,1.334,0,0,1-.53-.109,6.763,6.763,0,0,1-3.725-1.83,4.72,4.72,0,0,1-1.432-3.317,1.336,1.336,0,0,1,2.672,0,2.046,2.046,0,0,0,.656,1.434,4.258,4.258,0,0,0,2.511,1.11,1.364,1.364,0,0,1,.2.039h1.861a1.3,1.3,0,0,1,.2-.039,4.254,4.254,0,0,0,2.512-1.11,2.044,2.044,0,0,0,.655-1.434,1.336,1.336,0,0,1,2.672,0,4.719,4.719,0,0,1-1.432,3.316A6.77,6.77,0,0,1,90.536,115a1.254,1.254,0,0,1-.5.1Z" transform="translate(-25.156 -30.007)" fill="#3762cc"/>
    <path id="Path_808" data-name="Path 808" d="M83.754,144.721l-3.946,7.435a1.088,1.088,0,0,1-1.787.2L66.992,139.521a1.088,1.088,0,0,1-.1-1.289L68.11,136.3a2.073,2.073,0,0,1,1.756-.97h1.128Z" transform="translate(-20.16 -38.91)" fill="#e0ebfc"/>
    <path id="Path_809" data-name="Path 809" d="M78.18,153.406a2.421,2.421,0,0,1-1.838-.844L65.314,139.728a2.413,2.413,0,0,1-.214-2.87l1.213-1.931a3.392,3.392,0,0,1,2.887-1.595h1.128a1.336,1.336,0,0,1,.792.26l12.76,9.388a1.336,1.336,0,0,1,.388,1.7l-3.946,7.435a2.423,2.423,0,0,1-1.873,1.273A2.275,2.275,0,0,1,78.18,153.406ZM67.459,138.125l10.673,12.42,3.235-6.1L69.89,136H69.2a.736.736,0,0,0-.625.345Z" transform="translate(-19.495 -38.246)" fill="#3762cc"/>
    <path id="Path_810" data-name="Path 810" d="M92.14,144.721l3.946,7.435a1.088,1.088,0,0,0,1.787.2L108.9,139.521a1.088,1.088,0,0,0,.1-1.289l-1.214-1.931a2.073,2.073,0,0,0-1.756-.97H104.9Z" transform="translate(-28.596 -38.91)" fill="#e0ebfc"/>
    <path id="Path_811" data-name="Path 811" d="M96.385,153.406a2.421,2.421,0,0,1-2.142-1.288L90.3,144.683a1.336,1.336,0,0,1,.388-1.7l12.76-9.388a1.336,1.336,0,0,1,.792-.26h1.128a3.389,3.389,0,0,1,2.886,1.595l1.214,1.931a2.411,2.411,0,0,1-.214,2.871L98.223,152.562a2.423,2.423,0,0,1-1.838.844ZM93.2,144.449l3.235,6.1,10.673-12.42-1.116-1.776a.734.734,0,0,0-.625-.345h-.69Z" transform="translate(-27.932 -38.247)" fill="#3762cc"/>
    <g id="Group_6412" data-name="Group 6412" transform="translate(27.332 19.457)">
      <path id="Path_812" data-name="Path 812" d="M62.493,140.691h-.316a14.269,14.269,0,0,0-8.377,2.7l6.145,13.967a1.336,1.336,0,0,0,1.223.8h2.5a.668.668,0,0,1,.349,1.238l-1.419.868a1.336,1.336,0,0,0-.383,1.926l17.251,23.688v-7.768Z" transform="translate(-43.2 -60.146)" fill="#4671c6"/>
      <path id="Path_813" data-name="Path 813" d="M108.012,158.161h2.5a1.337,1.337,0,0,0,1.223-.8l6.145-13.967a14.272,14.272,0,0,0-8.377-2.7h-.316L92.214,178.114v7.768l17.251-23.688a1.336,1.336,0,0,0-.383-1.926l-1.419-.868A.668.668,0,0,1,108.012,158.161Z" transform="translate(-55.953 -60.146)" fill="#4671c6"/>
      <path id="Path_814" data-name="Path 814" d="M170.286,201.475H147.541V160.154a1.308,1.308,0,0,1,1.308-1.308h22.133a1.308,1.308,0,0,1,1.308,1.308v39.317a2,2,0,0,1-2,2Z" transform="translate(-74.319 -66.173)" fill="#4671c6"/>
      <path id="Path_815" data-name="Path 815" d="M83.473,53.243H37.933V43.31A23.189,23.189,0,0,1,61.122,20.121H90.374a6,6,0,0,1,6,6V40.346a12.9,12.9,0,0,1-12.9,12.9Z" transform="translate(-37.933 -20.121)" fill="#4671c6"/>
      <path id="Path_816" data-name="Path 816" d="M140.934,60.079h-5.348a10.174,10.174,0,0,1-10.174-10.174V25.273a5.152,5.152,0,0,1,5.152-5.152,10.371,10.371,0,0,1,10.371,10.371Z" transform="translate(-66.973 -20.121)" fill="#4671c6"/>
    </g>
    <path id="Path_817" data-name="Path 817" d="M129.963,181.043h-9.429a.63.63,0,0,1-.63-.63v-4.084a.63.63,0,0,1,.63-.63h9.429a.63.63,0,0,1,.63.63v4.084A.63.63,0,0,1,129.963,181.043Z" transform="translate(-37.812 -52.311)" fill="#a4c9ff"/>
    <path id="Path_818" data-name="Path 818" d="M129.592,175.927h-.228v-2.8a.551.551,0,1,0-.311-.1l-1.311,1.076a.158.158,0,0,1-.2,0l-1.311-1.076a.551.551,0,1,0-.623,0L124.3,174.1a.158.158,0,0,1-.2,0l-1.311-1.076a.551.551,0,1,0-.311.1v2.8h-.266a.209.209,0,0,0-.209.209v.82a.209.209,0,0,0,.209.209h.357a.155.155,0,0,0,.066.015h6.575a.155.155,0,0,0,.066-.015h.319a.209.209,0,0,0,.209-.209v-.82a.208.208,0,0,0-.208-.209Z" transform="translate(-38.482 -51.089)" fill="#ffea92"/>
    <path id="Path_819" data-name="Path 819" d="M78.8,186.554a1.337,1.337,0,0,1-1.08-.55L60.467,162.316a2.672,2.672,0,0,1,.292-3.482H60.5a2.674,2.674,0,0,1-2.446-1.6L51.914,143.27a1.336,1.336,0,0,1,.442-1.621,15.563,15.563,0,0,1,9.159-2.957h.317a1.335,1.335,0,0,1,1.216.784L80.015,176.9a1.332,1.332,0,0,1,.12.552v7.768a1.336,1.336,0,0,1-1.337,1.336ZM54.812,143.224,60.5,156.161H63a2,2,0,0,1,1.047,3.713l-1.42.869,14.835,20.37v-3.376L60.974,141.374a12.875,12.875,0,0,0-6.162,1.85Z" transform="translate(-15.204 -40.025)" fill="#3762cc"/>
    <path id="Path_820" data-name="Path 820" d="M91.55,186.554a1.336,1.336,0,0,1-1.336-1.336V177.45a1.334,1.334,0,0,1,.12-.552L107.3,139.475a1.335,1.335,0,0,1,1.216-.784h.317a15.563,15.563,0,0,1,9.159,2.957,1.335,1.335,0,0,1,.442,1.621l-6.145,13.967a2.673,2.673,0,0,1-2.446,1.6h-.255a2.672,2.672,0,0,1,.292,3.482L92.63,186a1.336,1.336,0,0,1-1.08.549Zm1.336-8.815v3.376l14.836-20.37-1.42-.868a2,2,0,0,1,1.047-3.714h2.5l5.692-12.937a12.877,12.877,0,0,0-6.162-1.85Z" transform="translate(-27.956 -40.025)" fill="#3762cc"/>
    <path id="Path_821" data-name="Path 821" d="M53.07,145.444a1.33,1.33,0,0,1-.951-2.268l.059-.057a1.336,1.336,0,0,1,2.263,1.078,1.375,1.375,0,0,1-1.371,1.247Z" transform="translate(-15.18 -41.369)" fill="#3762cc"/>
    <path id="Path_822" data-name="Path 822" d="M31.968,198.875H11.344A5.35,5.35,0,0,1,6,193.531V176.806a5.373,5.373,0,0,1,1.627-3.839l26.445-25.6a1.336,1.336,0,0,1,1.984,1.781,12.871,12.871,0,0,0-2.751,7.978v40.416a1.337,1.337,0,0,1-1.337,1.337Zm-1.053-44.737L9.486,174.886a2.685,2.685,0,0,0-.814,1.92v16.725a2.675,2.675,0,0,0,2.672,2.672H30.632v-39.08A15.756,15.756,0,0,1,30.915,154.138Z" transform="translate(0 -42.779)" fill="#3762cc"/>
    <path id="Path_823" data-name="Path 823" d="M86.23,206.359a2.261,2.261,0,0,1,1.019.243l5.754,2.9a5.758,5.758,0,0,0,3.028.855h15.187a1.686,1.686,0,0,0,1.613-1.2h0l.4-1.41,2.035-5.99a4.007,4.007,0,0,0,.213-1.289v-5.137a1.736,1.736,0,0,0-.095-.561c-.015-.067-.03-.136-.048-.2l-1.418-5.159a1.739,1.739,0,0,0-1.7-1.395h-2.118l-2.054-1.867a2.091,2.091,0,0,0-1.406-.543h-6.67a2.091,2.091,0,0,0-1.041.277l-4.978,2.522a5.762,5.762,0,0,0-.993.5l-4.209,2.4-.9.464a2.265,2.265,0,0,1-1.034.251H73.692v14.335H86.23Z" transform="translate(-22.472 -55.601)" fill="#f9cfcf"/>
    <path id="Path_824" data-name="Path 824" d="M123.617,189.892h-7.848a1.336,1.336,0,1,1,0-2.672h7.848a1.336,1.336,0,1,1,0,2.672Z" transform="translate(-35.996 -56.135)" fill="#3762cc"/>
    <path id="Path_825" data-name="Path 825" d="M110.553,211.034H95.366a7.109,7.109,0,0,1-3.677-1.023l-5.706-2.88a.933.933,0,0,0-.418-.1H73.027a1.337,1.337,0,0,1-1.336-1.336V191.36a1.337,1.337,0,0,1,1.336-1.336H86.14a.932.932,0,0,0,.424-.1l.9-.464,4.158-2.372a6.841,6.841,0,0,1,1.106-.558l4.9-2.48a3.428,3.428,0,0,1,1.672-.436h6.67a3.419,3.419,0,0,1,2.3.89l1.673,1.52h1.6a3.083,3.083,0,0,1,3,2.416l1.407,5.12c.019.069.035.137.051.205a3.037,3.037,0,0,1,.14.912v5.136a5.342,5.342,0,0,1-.285,1.718l-2.024,5.957-.387,1.375a3.011,3.011,0,0,1-2.9,2.17Zm-36.19-6.674h11.2a3.626,3.626,0,0,1,1.621.385l5.754,2.9c.033.017.066.035.1.055a4.44,4.44,0,0,0,2.327.657h15.187a.348.348,0,0,0,.333-.249l.391-1.385.021-.067,2.035-5.99a2.654,2.654,0,0,0,.142-.859v-5.137a.386.386,0,0,0-.022-.126,1.326,1.326,0,0,1-.044-.158c-.009-.043-.018-.085-.03-.127l-1.417-5.157c-.008-.03-.015-.06-.021-.091a.4.4,0,0,0-.395-.322h-2.118a1.336,1.336,0,0,1-.9-.348l-2.054-1.867a.753.753,0,0,0-.506-.2H99.3a.758.758,0,0,0-.375.1c-.02.012-.041.023-.062.034l-4.979,2.522c-.04.02-.08.038-.122.054a4.571,4.571,0,0,0-.764.384l-4.259,2.429-.954.491a3.611,3.611,0,0,1-1.645.4H74.363Z" transform="translate(-21.807 -54.938)" fill="#3762cc"/>
    <path id="Path_826" data-name="Path 826" d="M70.886,210.36H23.913V185.611H70.887a1.336,1.336,0,0,1,1.336,1.336v22.077A1.337,1.337,0,0,1,70.886,210.36Z" transform="translate(-5.947 -55.601)" fill="#4671c6"/>
    <path id="Path_827" data-name="Path 827" d="M70.222,211.033H23.248a1.336,1.336,0,0,1,0-2.672H70.222V186.284H23.248a1.336,1.336,0,0,1,0-2.672H70.222a2.675,2.675,0,0,1,2.672,2.672v22.077A2.675,2.675,0,0,1,70.222,211.033Z" transform="translate(-5.282 -54.938)" fill="#3762cc"/>
    <path id="Path_828" data-name="Path 828" d="M66.068,225.982H30.211a2.171,2.171,0,0,1-2.171-2.171V183.844a2.171,2.171,0,0,1,2.171-2.171H66.068a2.171,2.171,0,0,1,2.171,2.171v39.966A2.172,2.172,0,0,1,66.068,225.982Z" transform="translate(-7.317 -54.294)" fill="#e0ebfc"/>
    <path id="Path_829" data-name="Path 829" d="M65.4,226.654H29.547a3.511,3.511,0,0,1-3.507-3.507V183.18a3.511,3.511,0,0,1,3.507-3.507H65.4a3.51,3.51,0,0,1,3.507,3.507v39.966A3.511,3.511,0,0,1,65.4,226.654ZM29.547,182.346a.836.836,0,0,0-.835.835v39.966a.836.836,0,0,0,.835.835H65.4a.836.836,0,0,0,.834-.835V183.181a.836.836,0,0,0-.834-.835Z" transform="translate(-6.653 -53.63)" fill="#3762cc"/>
    <path id="Path_830" data-name="Path 830" d="M169.622,202.148H146.877a1.337,1.337,0,0,1-1.336-1.336V159.491a2.647,2.647,0,0,1,2.645-2.644h22.133a2.647,2.647,0,0,1,2.644,2.644v39.317a3.344,3.344,0,0,1-3.34,3.34Zm-21.41-2.672h21.41a.669.669,0,0,0,.668-.668V159.491l-22.1.028Z" transform="translate(-46.323 -46.052)" fill="#3762cc"/>
    <path id="Path_831" data-name="Path 831" d="M82.81,53.916H37.269a1.337,1.337,0,0,1-1.336-1.336V42.646A24.553,24.553,0,0,1,60.458,18.121H89.71a7.343,7.343,0,0,1,7.334,7.334V39.682A14.251,14.251,0,0,1,82.81,53.916Zm-44.2-2.672H82.81A11.575,11.575,0,0,0,94.372,39.682V25.455a4.668,4.668,0,0,0-4.662-4.662H60.458A21.877,21.877,0,0,0,38.605,42.646Z" transform="translate(-9.937 0)" fill="#3762cc"/>
    <path id="Path_832" data-name="Path 832" d="M140.27,60.752h-5.349a11.523,11.523,0,0,1-11.51-11.51V24.609a6.5,6.5,0,0,1,6.489-6.488,11.72,11.72,0,0,1,11.707,11.707V59.415a1.336,1.336,0,0,1-1.336,1.336ZM129.9,20.793a3.821,3.821,0,0,0-3.816,3.816V49.241a8.849,8.849,0,0,0,8.838,8.838h4.013V29.828a9.045,9.045,0,0,0-9.034-9.034Z" transform="translate(-38.977)" fill="#3762cc"/>
    <path id="Path_833" data-name="Path 833" d="M208.347,123.807H145.192a1.337,1.337,0,0,1-1.336-1.336A31.686,31.686,0,0,1,175.507,90.82h2.526a31.686,31.686,0,0,1,31.651,31.651A1.336,1.336,0,0,1,208.347,123.807Zm-61.789-2.672H206.98a29.014,29.014,0,0,0-28.948-27.643h-2.526a29.014,29.014,0,0,0-28.948,27.643Z" transform="translate(-45.764 -24.134)" fill="#3762cc"/>
    <path id="Path_834" data-name="Path 834" d="M205.417,144.678a2.638,2.638,0,0,0-2.637-2.637H186.246L174.793,140l-1.592-.182h9.4a3.826,3.826,0,0,0,3.825-3.9,1.185,1.185,0,0,0-1.2-1.132H174.357a5.267,5.267,0,0,0-2.206.484l-7.129,3.289-5.568,2.147a5.606,5.606,0,0,0-3.589,5.231v4.921h13.629l35.323-5.479a.708.708,0,0,0,.6-.7Z" transform="translate(-49.75 -38.729)" fill="#f9cfcf"/>
    <path id="Path_835" data-name="Path 835" d="M168.83,151.531H155.2a1.337,1.337,0,0,1-1.336-1.336v-4.921a6.986,6.986,0,0,1,4.444-6.478l5.529-2.131,7.089-3.271a6.644,6.644,0,0,1,2.766-.608H184.56a2.527,2.527,0,0,1,2.538,2.443,5.181,5.181,0,0,1-2.624,4.593l1.227.219h16.416a3.978,3.978,0,0,1,3.973,3.973,2.036,2.036,0,0,1-1.734,2.022l-35.322,5.479a1.4,1.4,0,0,1-.2.015Zm-12.293-2.672h12.19l34.583-5.364a1.3,1.3,0,0,0-1.193-.782H185.583a1.326,1.326,0,0,1-.235-.021l-11.412-2.037-1.551-.178a1.336,1.336,0,0,1,.152-2.663h9.4a2.491,2.491,0,0,0,2.486-2.356h-10.73a3.943,3.943,0,0,0-1.646.362l-7.129,3.289c-.026.012-.052.023-.079.033l-5.569,2.147a4.3,4.3,0,0,0-2.734,3.984v3.585Z" transform="translate(-49.086 -38.065)" fill="#3762cc"/>
    <path id="Path_836" data-name="Path 836" d="M193.188,90.293a8.885,8.885,0,0,1,1.152.1V86.167h-4.831v4.228a8.9,8.9,0,0,1,1.152-.1Z" transform="translate(-60.919 -22.589)" fill="#ffea92"/>
    <path id="Path_837" data-name="Path 837" d="M193.676,91.067a1.263,1.263,0,0,1-.174-.011,7.882,7.882,0,0,0-.979-.09H190a7.563,7.563,0,0,0-.951.087,1.365,1.365,0,0,1-1.07-.319,1.345,1.345,0,0,1-.469-1V85.5a1.337,1.337,0,0,1,1.336-1.336h4.831a1.337,1.337,0,0,1,1.336,1.336v4.229a1.335,1.335,0,0,1-1.335,1.335Zm-3.5-2.774h2.159V86.839h-2.159Z" transform="translate(-60.255 -21.925)" fill="#3762cc"/>
    <path id="Path_838" data-name="Path 838" d="M92.164,158.163H89.6a1.4,1.4,0,0,1-1.4-1.4v-5.948a1.4,1.4,0,0,1,1.4-1.4h2.565a1.4,1.4,0,0,1,1.4,1.4v5.948A1.4,1.4,0,0,1,92.164,158.163Z" transform="translate(-27.287 -43.586)" fill="#f9a7a7"/>
    <path id="Path_839" data-name="Path 839" d="M83.737,155.536v-5.948a1.391,1.391,0,0,1,.259-.806l-6.307-2.875a2.071,2.071,0,0,0-2.93,1.885v9.541a2.071,2.071,0,0,0,2.93,1.885L84,156.343a1.39,1.39,0,0,1-.259-.807Z" transform="translate(-22.826 -42.359)" fill="#f9a7a7"/>
    <path id="Path_840" data-name="Path 840" d="M103.009,145.721a2.071,2.071,0,0,0-.859.186l-6.308,2.875a1.389,1.389,0,0,1,.259.806v5.948a1.391,1.391,0,0,1-.259.806l6.308,2.875a2.072,2.072,0,0,0,2.931-1.885v-9.541A2.072,2.072,0,0,0,103.009,145.721Z" transform="translate(-29.825 -42.359)" fill="#f9a7a7"/>
    <path id="Path_841" data-name="Path 841" d="M91.5,158.834H88.935A2.739,2.739,0,0,1,86.2,156.1v-5.947a2.739,2.739,0,0,1,2.736-2.736H91.5a2.739,2.739,0,0,1,2.736,2.736V156.1A2.739,2.739,0,0,1,91.5,158.834Zm-2.566-8.746a.063.063,0,0,0-.063.063V156.1a.064.064,0,0,0,.063.063H91.5a.063.063,0,0,0,.063-.063v-5.947a.063.063,0,0,0-.063-.063Z" transform="translate(-26.623 -42.922)" fill="#3762cc"/>
    <path id="Path_842" data-name="Path 842" d="M76.165,160.076a3.411,3.411,0,0,1-3.408-3.407v-9.541a3.408,3.408,0,0,1,4.821-3.1l6.307,2.875a1.335,1.335,0,0,1,.538,1.986l-.014,5.983a.055.055,0,0,0,.013.035,1.336,1.336,0,0,1-.536,1.987l-6.307,2.875A3.375,3.375,0,0,1,76.165,160.076Zm0-13.683a.737.737,0,0,0-.736.736v9.541a.753.753,0,0,0,1.041.668l5.267-2.4c0-.021,0-.043,0-.064v-5.947c0-.021,0-.043,0-.064l-5.267-2.4A.72.72,0,0,0,76.165,146.393Z" transform="translate(-22.161 -41.695)" fill="#3762cc"/>
    <path id="Path_843" data-name="Path 843" d="M102.345,160.076a3.425,3.425,0,0,1-1.414-.307l-6.307-2.875a1.335,1.335,0,0,1-.536-1.989l.013-5.98a1.375,1.375,0,0,1-.206-1.137,1.353,1.353,0,0,1,.729-.884l6.308-2.875a3.407,3.407,0,0,1,4.821,3.1v9.541a3.411,3.411,0,0,1-3.408,3.407Zm-5.572-5.14,5.267,2.4a.736.736,0,0,0,1.041-.669v-9.541a.735.735,0,0,0-1.04-.669l-5.268,2.4c0,.021,0,.043,0,.064v5.947C96.773,154.894,96.773,154.915,96.773,154.937Z" transform="translate(-29.161 -41.695)" fill="#3762cc"/>
  </g>
</svg>
