<svg xmlns="http://www.w3.org/2000/svg" width="42.679" height="42.678" viewBox="0 0 42.679 42.678">
  <g id="_024-french-fries" data-name="024-french-fries" transform="translate(0 -0.168)">
    <path id="Path_381" data-name="Path 381" d="M21.336,58.352V46.712H29.1v1.94h3.88v-3.88h19.4v-1.94h7.76v15.52Zm0,0" transform="translate(-19.396 -38.784)" fill="#cc4900"/>
    <path id="Path_382" data-name="Path 382" d="M256,.168h7.76v29.1H256Zm0,0" transform="translate(-232.721)" fill="#e76400"/>
    <path id="Path_383" data-name="Path 383" d="M277.332,21.5h1.94V50.6h-1.94Zm0,0" transform="translate(-252.113 -19.392)" fill="#cc4900"/>
    <path id="Path_384" data-name="Path 384" d="M42.668,42.832h7.76V69.991h-7.76Zm0,0" transform="translate(-38.788 -38.784)" fill="#f59707"/>
    <path id="Path_385" data-name="Path 385" d="M64,64.168h1.94V91.327H64Zm0,0" transform="translate(-58.18 -58.18)" fill="#fdab00"/>
    <path id="Path_386" data-name="Path 386" d="M64,106.832h1.94v9.7H64Zm0,0" transform="translate(-58.18 -96.965)" fill="#fdbc34"/>
    <path id="Path_387" data-name="Path 387" d="M42.668,129.3v6.623h7.76v-7.76H43.8Zm0,0" transform="translate(-38.788 -116.36)" fill="#ef7f00"/>
    <path id="Path_388" data-name="Path 388" d="M197.271,59.527l5.487,5.487L182.182,85.59,176.7,80.1Zm0,0" transform="translate(-160.628 -53.962)" fill="#f59707"/>
    <path id="Path_389" data-name="Path 389" d="M323.125,96.385l7.76-7.76L332.256,90l-7.76,7.76Zm0,0" transform="translate(-293.742 -80.413)" fill="#fdbc34"/>
    <path id="Path_390" data-name="Path 390" d="M277.336,176.742l1.94-1.94V163.828l-1.94,1.94Zm0,0" transform="translate(-252.117 -148.778)" fill="#ef7f00"/>
    <path id="Path_391" data-name="Path 391" d="M192,21.5h7.76V50.6H192Zm0,0" transform="translate(-174.541 -19.392)" fill="#fdab00"/>
    <path id="Path_392" data-name="Path 392" d="M106.668.168h7.76v29.1h-7.76Zm0,0" transform="translate(-96.968)" fill="#fdbc34"/>
    <path id="Path_393" data-name="Path 393" d="M128,21.5h1.94V48.659H128Zm0,0" transform="translate(-116.36 -19.392)" fill="#fdcf6d"/>
    <path id="Path_394" data-name="Path 394" d="M128,64.168h1.94v3.88H128Zm0,0" transform="translate(-116.36 -58.18)" fill="#fee3aa"/>
    <path id="Path_395" data-name="Path 395" d="M170.668.168h1.94v29.1h-1.94Zm0,0" transform="translate(-155.148)" fill="#fdab00"/>
    <path id="Path_396" data-name="Path 396" d="M192,42.832h1.94V68.051H192Zm0,0" transform="translate(-174.541 -38.784)" fill="#f59707"/>
    <path id="Path_397" data-name="Path 397" d="M248.992,135.928h10.974l5.9-5.9-1.857-1.857h-7.26Zm0,0" transform="translate(-226.35 -116.36)" fill="#ef7f00"/>
    <path id="Path_398" data-name="Path 398" d="M277.336,168.345h1.94v-4.517l-1.94,1.94Zm0,0" transform="translate(-252.117 -148.778)" fill="#e76400"/>
    <path id="Path_399" data-name="Path 399" d="M192,184.41v2.645h7.76v-2.636a11.09,11.09,0,0,1-7.76-.009Zm0,0" transform="translate(-174.541 -167.488)" fill="#f59707"/>
    <path id="Path_400" data-name="Path 400" d="M106.668,135.928h7.76v-2.645a7.1,7.1,0,0,1-3.979-3.788l-.442-1.326h-3.338Zm0,0" transform="translate(-96.968 -116.36)" fill="#f59707"/>
    <path id="Path_401" data-name="Path 401" d="M36.859,149.5h-5.82s-1.94,5.82-9.7,5.82-9.7-5.82-9.7-5.82H5.82L0,155.32l3.88,19.4,3.88,3.88a47.37,47.37,0,0,1,13.58-1.94,47.369,47.369,0,0,1,13.579,1.94l3.88-3.88,3.88-19.4Zm0,0" transform="translate(0 -135.753)" fill="#c11107"/>
    <path id="Path_402" data-name="Path 402" d="M89.137,204.536l-1.574-23.615,1.936-.129,1.425,21.391a54.207,54.207,0,0,1,10.015-.958v1.94A52.224,52.224,0,0,0,90.233,204.3Zm0,0" transform="translate(-79.6 -164.2)" fill="#c82e25"/>
    <path id="Path_403" data-name="Path 403" d="M91.125,234.367l1.936-.129.646,9.689-1.936.129Zm0,0" transform="translate(-82.839 -212.785)" fill="#d2514a"/>
    <path id="Path_404" data-name="Path 404" d="M136.15,178.573l-1.143-.31a48.813,48.813,0,0,0-12.438-1.6v-1.94a51.394,51.394,0,0,1,11.8,1.381l1.643-24.66H133.5c-1.181,2.1-4.22,5.82-10.926,5.82-7.339,0-10.286-4.453-11.213-6.367l1.747-.845c.767,1.585,3.225,5.272,9.467,5.272s8.7-3.687,9.466-5.272l.265-.547h5.787Zm0,0" transform="translate(-101.229 -135.753)" fill="#af0a00"/>
    <path id="Path_405" data-name="Path 405" d="M182.308,261.988a5.82,5.82,0,1,1-5.82-5.82A5.82,5.82,0,0,1,182.308,261.988Zm0,0" transform="translate(-155.148 -232.721)" fill="#fdab00"/>
    <path id="Path_406" data-name="Path 406" d="M385.94,149.5,384,178.6l3.88-3.88,3.88-19.4Zm0,0" transform="translate(-349.081 -135.753)" fill="#af0a00"/>
    <path id="Path_407" data-name="Path 407" d="M5.82,149.5l1.94,29.1-3.88-3.88L0,155.32Zm0,0" transform="translate(0 -135.753)" fill="#d2514a"/>
  </g>
</svg>
