<svg id="_017-crab" data-name="017-crab" xmlns="http://www.w3.org/2000/svg" width="56.51" height="56.51" viewBox="0 0 56.51 56.51">
  <path id="Path_339" data-name="Path 339" d="M314.08,12.843V10.274A10.275,10.275,0,0,0,303.8,0l5.137,10.274L298.668,5.137a10.274,10.274,0,0,0,10.274,10.274h2.569v5.137a10.274,10.274,0,0,0-10.274,10.274l2.568,2.568A10.275,10.275,0,0,0,314.08,23.118s5.137,0,5.137-5.137S314.08,12.843,314.08,12.843Zm0,0" transform="translate(-262.707)" fill="#c82e25"/>
  <path id="Path_340" data-name="Path 340" d="M10.274,15.412A10.275,10.275,0,0,0,20.549,5.137L10.274,10.274,15.412,0A10.274,10.274,0,0,0,5.137,10.274v2.569S0,12.843,0,17.98s5.137,5.137,5.137,5.137A10.274,10.274,0,0,0,15.412,33.392l2.568-2.568A10.274,10.274,0,0,0,7.706,20.549V15.412Zm0,0" fill="#c82e25"/>
  <path id="Path_341" data-name="Path 341" d="M325.442,127.562l-2.192-2.192,1.816-1.816,1.36,1.361a7.711,7.711,0,0,0,6.707-7.642l.015-2.538,2.531-.03a2.36,2.36,0,0,0,2.591-2.569,2.285,2.285,0,0,0-2.23-2.544l.316-2.548a4.787,4.787,0,0,1,4.482,5.092,4.907,4.907,0,0,1-5.129,5.137l-.008.008a10.275,10.275,0,0,1-9.685,10.249Zm0,0" transform="translate(-284.329 -94.154)" fill="#af0a00"/>
  <path id="Path_342" data-name="Path 342" d="M14.822,127.529a10.277,10.277,0,0,1-9.685-10.257A4.908,4.908,0,0,1,0,112.135a4.789,4.789,0,0,1,4.483-5.092l.316,2.548a2.286,2.286,0,0,0-2.23,2.544A2.356,2.356,0,0,0,5.152,114.7H7.706v2.568a7.708,7.708,0,0,0,7.262,7.693Zm0,0" transform="translate(0 -94.154)" fill="#af0a00"/>
  <path id="Path_343" data-name="Path 343" d="M12.843,298.668a7.706,7.706,0,0,0-7.706,7.706S0,306.374,0,311.511s5.137,5.137,5.137,5.137v-5.137l2.568-2.569a7.706,7.706,0,0,0,7.706-7.706Zm0,0" transform="translate(0 -262.707)" fill="#c82e25"/>
  <path id="Path_344" data-name="Path 344" d="M23.9,336.925H21.332v-4.718l4.074-4.074h1.063a5.163,5.163,0,0,0,5.122-4.727l2.559.2a7.74,7.74,0,0,1-7.681,7.093L23.9,333.271Zm0,0" transform="translate(-18.764 -284.467)" fill="#af0a00"/>
  <path id="Path_345" data-name="Path 345" d="M343.9,298.668a7.706,7.706,0,0,1,7.706,7.706s5.137,0,5.137,5.137-5.137,5.137-5.137,5.137v-5.137l-2.569-2.569a7.706,7.706,0,0,1-7.706-7.706Zm0,0" transform="translate(-300.234 -262.707)" fill="#c82e25"/>
  <path id="Path_346" data-name="Path 346" d="M354.361,336.925h-2.568v-3.655l-2.569-2.568a7.739,7.739,0,0,1-7.68-7.093l2.559-.2a5.162,5.162,0,0,0,5.122,4.727h1.064l4.074,4.074Zm0,0" transform="translate(-300.42 -284.467)" fill="#af0a00"/>
  <path id="Path_347" data-name="Path 347" d="M114.374,365.236l-2.569-2.568-.542.271a8.313,8.313,0,0,0-4.595,7.435,5.137,5.137,0,0,0,5.137,5.137c0-2.568-2.568-5.137-2.568-5.137A5.138,5.138,0,0,0,114.374,365.236Zm0,0" transform="translate(-93.825 -319.001)" fill="#c82e25"/>
  <path id="Path_348" data-name="Path 348" d="M114.385,395.559a8.708,8.708,0,0,0-1.51-2.173l1.821-1.811a11.148,11.148,0,0,1,2.022,2.914Zm.311-3.986h-1.169V389H114.7a2.572,2.572,0,0,0,2.546-2.235l2.549.331A5.148,5.148,0,0,1,114.7,391.573Zm0,0" transform="translate(-99.284 -340.201)" fill="#af0a00"/>
  <path id="Path_349" data-name="Path 349" d="M298.668,365.236l2.568-2.568.542.271a8.312,8.312,0,0,1,4.6,7.435,5.137,5.137,0,0,1-5.137,5.137c0-2.568,2.568-5.137,2.568-5.137A5.137,5.137,0,0,1,298.668,365.236Zm0,0" transform="translate(-262.707 -319.001)" fill="#c82e25"/>
  <g id="Group_657" data-name="Group 657" transform="translate(6.253 0.986)">
    <path id="Path_350" data-name="Path 350" d="M303.831,396.174l-1.144-2.3a2.571,2.571,0,0,0,1.4-1.918l2.538.379A5.134,5.134,0,0,1,303.831,396.174Zm.283-4.6a5.151,5.151,0,0,1-5.095-4.473l2.549-.331A2.572,2.572,0,0,0,304.114,389Zm0,0" transform="translate(-269.269 -341.186)" fill="#af0a00"/>
    <path id="Path_351" data-name="Path 351" d="M85.332,66.813V64.245a7.7,7.7,0,0,0,7.47-5.807l2.489.634A10.27,10.27,0,0,1,85.332,66.813Zm0,0" transform="translate(-81.311 -52.387)" fill="#af0a00"/>
    <path id="Path_352" data-name="Path 352" d="M51.934,19.777,57.727,8.191l2.3,1.149L54.231,20.926Zm0,0" transform="translate(-51.934 -8.191)" fill="#af0a00"/>
    <path id="Path_353" data-name="Path 353" d="M350.207,9.336l2.3-1.149L358.3,19.774,356,20.923Zm0,0" transform="translate(-314.294 -8.188)" fill="#af0a00"/>
    <path id="Path_354" data-name="Path 354" d="M311.251,66.813a10.269,10.269,0,0,1-9.958-7.741l2.488-.634a7.7,7.7,0,0,0,7.47,5.807Zm0,0" transform="translate(-271.269 -52.387)" fill="#af0a00"/>
    <path id="Path_355" data-name="Path 355" d="M112.185,383.668a8.291,8.291,0,0,0-1.314,2.378,17.56,17.56,0,0,0,3.449,2.586A5.109,5.109,0,0,0,116.85,387,15.492,15.492,0,0,1,112.185,383.668Zm0,0" transform="translate(-103.775 -338.458)" fill="#af0a00"/>
    <path id="Path_356" data-name="Path 356" d="M313.466,383.668A15.5,15.5,0,0,1,308.8,387a5.108,5.108,0,0,0,2.531,1.636,17.542,17.542,0,0,0,3.448-2.586A8.3,8.3,0,0,0,313.466,383.668Zm0,0" transform="translate(-277.873 -338.458)" fill="#af0a00"/>
    <path id="Path_357" data-name="Path 357" d="M338.659,203.124a10.272,10.272,0,0,0,2.212-1.564,12.866,12.866,0,0,0-6.407-7.169,10.28,10.28,0,0,0-1.652,2.064A10.527,10.527,0,0,1,338.659,203.124Zm0,0" transform="translate(-298.993 -171.971)" fill="#af0a00"/>
    <path id="Path_358" data-name="Path 358" d="M69.594,201.56a10.27,10.27,0,0,0,2.212,1.564,10.528,10.528,0,0,1,5.847-6.669A10.265,10.265,0,0,0,76,194.391,12.863,12.863,0,0,0,69.594,201.56Zm0,0" transform="translate(-67.467 -171.971)" fill="#af0a00"/>
    <path id="Path_359" data-name="Path 359" d="M71.052,310.047a16.817,16.817,0,0,1-2.654-7.688,7.63,7.63,0,0,0-2.418,1.359,19.3,19.3,0,0,0,2.9,7.789A7.709,7.709,0,0,0,71.052,310.047Zm0,0" transform="translate(-64.289 -266.94)" fill="#af0a00"/>
    <path id="Path_360" data-name="Path 360" d="M366.306,303.718a7.633,7.633,0,0,0-2.418-1.359,16.817,16.817,0,0,1-2.654,7.688,7.716,7.716,0,0,0,2.169,1.46A19.307,19.307,0,0,0,366.306,303.718Zm0,0" transform="translate(-323.993 -266.94)" fill="#af0a00"/>
  </g>
  <path id="Path_361" data-name="Path 361" d="M121.293,203.559c0,7.8-5.137,16.7-17.98,16.7s-17.981-8.894-17.981-16.7S93.382,192,103.313,192,121.293,195.757,121.293,203.559Zm0,0" transform="translate(-75.058 -168.882)" fill="#c82e25"/>
  <path id="Path_362" data-name="Path 362" d="M137.731,235.21c-1.268-1.268-4.354-.24-6.891,2.3s-3.566,5.622-2.3,6.891,4.354.24,6.891-2.3S139,236.479,137.731,235.21Zm0,0" transform="translate(-112.588 -206.412)" fill="#d96c66"/>
  <path id="Path_363" data-name="Path 363" d="M130.434,341.469c-.317-.317-1.089-.06-1.723.574s-.891,1.406-.574,1.723,1.088.06,1.723-.574S130.751,341.786,130.434,341.469Zm0,0" transform="translate(-112.589 -300.235)" fill="#d96c66"/>
  <path id="Path_364" data-name="Path 364" d="M234.668,220.255v-5.137c9.469,0,12.843-5.971,12.843-11.559,0-4.74-6.918-6.421-12.843-6.421V192c11.089,0,17.98,4.429,17.98,11.559C252.648,211.869,247.089,220.255,234.668,220.255Zm0,0" transform="translate(-206.413 -168.882)" fill="#c11107"/>
  <path id="Path_365" data-name="Path 365" d="M135.706,195.853A3.853,3.853,0,1,1,131.853,192,3.853,3.853,0,0,1,135.706,195.853Zm0,0" transform="translate(-112.588 -168.882)" fill="#2b1718"/>
  <path id="Path_366" data-name="Path 366" d="M173.236,193.284A1.284,1.284,0,1,1,171.952,192,1.284,1.284,0,0,1,173.236,193.284Zm0,0" transform="translate(-150.119 -168.882)" fill="#afa8a8"/>
  <path id="Path_367" data-name="Path 367" d="M285.038,195.853A3.853,3.853,0,1,1,281.185,192,3.853,3.853,0,0,1,285.038,195.853Zm0,0" transform="translate(-243.94 -168.882)" fill="#2b1718"/>
  <path id="Path_368" data-name="Path 368" d="M322.568,193.284A1.284,1.284,0,1,1,321.284,192,1.284,1.284,0,0,1,322.568,193.284Zm0,0" transform="translate(-281.47 -168.882)" fill="#afa8a8"/>
  <path id="Path_369" data-name="Path 369" d="M239.8,365.236a2.568,2.568,0,1,1-2.568-2.568A2.569,2.569,0,0,1,239.8,365.236Zm0,0" transform="translate(-206.413 -319.001)" fill="#c11107"/>
  <path id="Path_370" data-name="Path 370" d="M306.374,302.521a3.853,3.853,0,1,1-3.853-3.853A3.853,3.853,0,0,1,306.374,302.521Zm0,0" transform="translate(-262.707 -262.707)" fill="#c11107"/>
  <path id="Path_371" data-name="Path 371" d="M151.9,363.952a1.284,1.284,0,1,1-1.284-1.284A1.285,1.285,0,0,1,151.9,363.952Zm0,0" transform="translate(-131.352 -319.001)" fill="#c11107"/>
  <path id="Path_372" data-name="Path 372" d="M258.568,257.284A1.284,1.284,0,1,1,257.284,256,1.284,1.284,0,0,1,258.568,257.284Zm0,0" transform="translate(-225.176 -225.176)" fill="#c11107"/>
  <path id="Path_373" data-name="Path 373" d="M237.236,278.617a1.284,1.284,0,1,1-1.284-1.284A1.285,1.285,0,0,1,237.236,278.617Zm0,0" transform="translate(-206.413 -243.94)" fill="#c11107"/>
  <path id="Path_374" data-name="Path 374" d="M194.568,342.617a1.284,1.284,0,1,1-1.284-1.284A1.284,1.284,0,0,1,194.568,342.617Zm0,0" transform="translate(-168.882 -300.234)" fill="#c11107"/>
  <path id="Path_375" data-name="Path 375" d="M66.6,185.755a3.278,3.278,0,0,0-2.729-1.854l.015-2.569a5.852,5.852,0,0,1,5.017,3.284Zm0,0" transform="translate(-56.184 -159.499)" fill="#d96c66"/>
  <path id="Path_376" data-name="Path 376" d="M355.408,185.755l-2.3-1.139a5.851,5.851,0,0,1,5.017-3.284l.015,2.569A3.277,3.277,0,0,0,355.408,185.755Zm0,0" transform="translate(-310.59 -159.499)" fill="#d96c66"/>
  <path id="Path_377" data-name="Path 377" d="M42.668,128h2.568v5.137H42.668Zm0,0" transform="translate(-37.531 -112.588)" fill="#d2514a"/>
  <path id="Path_378" data-name="Path 378" d="M405.332,128H407.9v5.137h-2.569Zm0,0" transform="translate(-356.528 -112.588)" fill="#d2514a"/>
  <path id="Path_379" data-name="Path 379" d="M45.236,323.868l-2.568-.015A3.744,3.744,0,0,1,46.521,320v2.568A1.18,1.18,0,0,0,45.236,323.868Zm0,0" transform="translate(-37.531 -281.47)" fill="#d2514a"/>
  <path id="Path_380" data-name="Path 380" d="M395.952,323.868a1.18,1.18,0,0,0-1.284-1.3V320a3.745,3.745,0,0,1,3.853,3.853h-1.284Zm0,0" transform="translate(-347.148 -281.47)" fill="#d2514a"/>
</svg>
