<svg xmlns="http://www.w3.org/2000/svg" viewBox="0 0 35 35"><defs><style>.cls-1{fill:#fff;}.cls-2{fill:#ff6900;}</style></defs><g id="Layer_2" data-name="Layer 2"><g id="Layer_1-2" data-name="Layer 1"><path class="cls-1" d="M8,16.45A3.87,3.87,0,0,0,3.6,16V8.7H16.77c-.26.27-.38.5-.57.58a4.49,4.49,0,0,0-3.06,4.53c0,.74,0,1.47,0,2.1a10.4,10.4,0,0,0-2.58-.36A11.53,11.53,0,0,0,8,16.45Z"/><path class="cls-1" d="M31.75,15.09v6.32H22.6V15.09Z"/><path class="cls-1" d="M14.71,21.47c0-2.89-.06-5.66,0-8.42a3,3,0,0,1,3.17-2.59A3,3,0,0,1,21,13.27c.07,2.58,0,5.17,0,7.75,0,.15-.25.43-.38.43C18.69,21.48,16.74,21.47,14.71,21.47Zm1.69-5.72c1.15-.66,2.25-1.26,3.29-1.92.13-.09.12-.61,0-.79a.92.92,0,0,0-.81-.23,32.87,32.87,0,0,0-2.93,1.58.83.83,0,0,0-.19.78C15.79,15.38,16.12,15.52,16.4,15.75ZM20,16.88a.76.76,0,0,0-1.18-.73c-.86.43-1.71.9-2.55,1.37-.45.24-.64.6-.35,1a.75.75,0,0,0,1.09.2c.84-.46,1.71-.9,2.54-1.39A1.94,1.94,0,0,0,20,16.88Z"/><path class="cls-1" d="M29.6,11.19c-2.54,0-5,0-7.38,0-.19,0-.39-.23-.57-.36a12.42,12.42,0,0,0-1.82-1.35.89.89,0,0,1-.61-1.07,1.16,1.16,0,0,1,.93-1.11,2.23,2.23,0,0,1,.37,0h7.79a1.12,1.12,0,0,1,1.28,1.06C29.64,9.25,29.6,10.17,29.6,11.19Z"/><path class="cls-1" d="M13.14,21.44H8.22a4,4,0,0,1,1.61-4.21,2.05,2.05,0,0,1,2.15,0A1.84,1.84,0,0,1,13.16,19C13.1,19.76,13.14,20.56,13.14,21.44Z"/><path class="cls-1" d="M5.36,7.13c0-.06,0-.09,0-.11.32-1.7.32-1.7,2.12-1.7,2,0,4.07,0,6.11,0,.62,0,.95.15,1,.74a10.45,10.45,0,0,0,.29,1.08Z"/><path class="cls-1" d="M2.66,21.42a4.37,4.37,0,0,1,1.15-3.76A2.22,2.22,0,0,1,7,17.5a.69.69,0,0,1,.2.57c-.25,1.09-.54,2.18-.84,3.35Z"/><path class="cls-1" d="M28,5.8H20.71c.27-.66.48-1.26.75-1.84A.72.72,0,0,1,22,3.73c1.54,0,3.08,0,4.63,0a.65.65,0,0,1,.74.5C27.54,4.71,27.77,5.19,28,5.8Z"/><path class="cls-1" d="M22.59,13.53v-.84a5.48,5.48,0,0,1,.57,0h8.45c.14,0,.33,0,.43,0s.38.29.41.46-.21.31-.37.43-.23,0-.35,0H22.91A1.72,1.72,0,0,1,22.59,13.53Z"/><path class="cls-2" d="M16.4,15.75c-.28-.23-.61-.37-.66-.58a.83.83,0,0,1,.19-.78,32.87,32.87,0,0,1,2.93-1.58.92.92,0,0,1,.81.23c.14.18.15.7,0,.79C18.65,14.49,17.55,15.09,16.4,15.75Z"/><path class="cls-2" d="M20,16.88a1.94,1.94,0,0,1-.45.49c-.83.49-1.7.93-2.54,1.39a.75.75,0,0,1-1.09-.2c-.29-.44-.1-.8.35-1,.84-.47,1.69-.94,2.55-1.37A.76.76,0,0,1,20,16.88Z"/><rect class="cls-1" x="1.54" y="22.96" width="31.88" height="10.58"/><path class="cls-2" d="M35,31.21V21.35H33.3V19.73h0c0-1.64,0-3.28,0-4.93a.9.9,0,0,1,.25-.47,1.77,1.77,0,0,0,.22-2.08,2,2,0,0,0-1.85-1.06l-.84,0a26.43,26.43,0,0,0,0-2.68,2.62,2.62,0,0,0-.55-1.6,7.3,7.3,0,0,1-1.64-3A.6.6,0,0,1,29,3.35a1.77,1.77,0,0,0,.6-2.19A2,2,0,0,0,27.55,0H21.22a2,2,0,0,0-2,1.14,1.75,1.75,0,0,0,.46,2.1.73.73,0,0,1,.16.64A8.19,8.19,0,0,1,18.18,7c-.51.49-.95.08-1.41.16-.1,0-.35-.31-.42-.51-.22-.64-.41-1.29-.57-1.94a1,1,0,0,0-1.14-.83q-4.58,0-9.13,0a1,1,0,0,0-1.1.79A16.89,16.89,0,0,1,3.8,6.75a.83.83,0,0,1-.59.43c-1,.11-1.15.19-1.15,1.19v8.39a1.65,1.65,0,0,1-.11.81,9.32,9.32,0,0,0-1,3.72H0V35H35ZM31.61,12.64c.14,0,.33,0,.43,0s.38.29.41.46-.21.31-.37.43-.23,0-.35,0H22.91a1.72,1.72,0,0,1-.32-.06v-.84a5.48,5.48,0,0,1,.57,0Zm.14,2.45v6.32H22.6V15.09ZM21.27,1.46c2.08,0,4.17,0,6.25,0,.25,0,.48.25.72.39-.23.14-.46.41-.7.42-1,0-2.05,0-3.08,0s-2.11,0-3.17,0c-.24,0-.47-.26-.7-.39C20.82,1.73,21,1.46,21.27,1.46ZM28,5.8H20.71c.27-.66.48-1.26.75-1.84A.72.72,0,0,1,22,3.73c1.54,0,3.08,0,4.63,0a.65.65,0,0,1,.74.5C27.54,4.71,27.77,5.19,28,5.8Zm-8.8,2.6a1.16,1.16,0,0,1,.93-1.11c.12,0,.24,0,.37,0h7.79a1.12,1.12,0,0,1,1.28,1.06c.05.92,0,1.84,0,2.86-2.54,0-5,0-7.38,0-.19,0-.39-.23-.57-.36a12.42,12.42,0,0,0-1.82-1.35A.89.89,0,0,1,19.22,8.4ZM17.9,10.46A3,3,0,0,1,21,13.27c.07,2.58,0,5.17,0,7.75,0,.15-.25.43-.38.43-2,0-3.91,0-5.94,0,0-2.89-.06-5.66,0-8.42A3,3,0,0,1,17.9,10.46ZM7.46,5.32c2,0,4.07,0,6.11,0,.62,0,.95.15,1,.74a10.45,10.45,0,0,0,.29,1.08H5.36c0-.06,0-.09,0-.11C5.66,5.32,5.66,5.32,7.46,5.32ZM3.6,8.7H16.77c-.26.27-.38.5-.57.58a4.49,4.49,0,0,0-3.06,4.53c0,.74,0,1.47,0,2.1a10.4,10.4,0,0,0-2.58-.36,11.53,11.53,0,0,0-2.53.9A3.87,3.87,0,0,0,3.6,16Zm9.54,12.74H8.22a4,4,0,0,1,1.61-4.21,2.05,2.05,0,0,1,2.15,0A1.84,1.84,0,0,1,13.16,19C13.1,19.76,13.14,20.56,13.14,21.44ZM3.81,17.66A2.22,2.22,0,0,1,7,17.5a.69.69,0,0,1,.2.57c-.25,1.09-.54,2.18-.84,3.35H2.66A4.4,4.4,0,0,1,3.81,17.66ZM33.43,33.54H1.55V23H33.43Z"/><path class="cls-1" d="M24.46,2.29c-1.06,0-2.11,0-3.17,0-.24,0-.7,0-.7-.39s.45-.42.68-.42c2.08,0,4.17,0,6.25,0,.25,0,.72-.07.72.39s-.46.41-.7.42C26.52,2.32,25.49,2.29,24.46,2.29Z"/></g></g></svg>