<svg xmlns="http://www.w3.org/2000/svg" width="44.574" height="44.574" viewBox="0 0 44.574 44.574">
  <g id="_2427861-fast-food-food-italian-food-junk-food-pizza" data-name="2427861-fast-food-food-italian-food-junk-food-pizza" transform="translate(-0.213 -0.166)">
    <g id="Group_643" data-name="Group 643" transform="translate(0.213 0.166)">
      <g id="Group_639" data-name="Group 639" transform="translate(1.727 1.709)">
        <path id="Path_306" data-name="Path 306" d="M23.079,66.67a4.055,4.055,0,1,0,4.055,4.054A4.06,4.06,0,0,0,23.079,66.67Z" transform="translate(-11.493 -35.65)" fill="#f69b77"/>
        <path id="Path_307" data-name="Path 307" d="M37,3.638,35.159,8.007c5.521,1.13,17.108,5.4,21.244,21.349L60.808,27.5C56.727,5.816,39.4,3.811,37,3.638Z" transform="translate(-19.688 -3.638)" fill="#dabe92"/>
        <path id="Path_308" data-name="Path 308" d="M18.87,14.076,3.722,50.1l7.649-3.216a4.872,4.872,0,1,1,8.742-3.675l19.56-8.226C35.623,19.185,24.134,15.113,18.87,14.076Z" transform="translate(-3.722 -8.939)" fill="#fae58f"/>
      </g>
      <g id="Group_642" data-name="Group 642">
        <path id="Path_309" data-name="Path 309" d="M52.789,35.763C48.642,12.777,29.51,12.137,29.317,12.133l.044-2.219A26.077,26.077,0,0,1,40.517,13.27c5.31,2.962,12.129,9.2,14.456,22.1Z" transform="translate(-14.994 -5.117)" fill="#434b56"/>
        <g id="Group_640" data-name="Group 640" transform="translate(21.176 18.977)">
          <path id="Path_310" data-name="Path 310" d="M45.5,47.991l4.047-7.009,4.046,7.009Z" transform="translate(-44.387 -39.873)" fill="#acd263"/>
          <path id="Path_311" data-name="Path 311" d="M52.444,47.956H44.352a1.11,1.11,0,0,1-.961-1.665l4.046-7.008a1.107,1.107,0,0,1,.961-.555h0a1.109,1.109,0,0,1,.961.555L53.4,46.291a1.11,1.11,0,0,1-.961,1.665Zm-6.169-2.22h4.247L48.4,42.058Z" transform="translate(-43.242 -38.728)" fill="#434b56"/>
        </g>
        <path id="Path_312" data-name="Path 312" d="M21.823,74.384A5.576,5.576,0,1,1,27.4,68.806,5.583,5.583,0,0,1,21.823,74.384Zm0-8.934a3.356,3.356,0,1,0,3.356,3.355A3.36,3.36,0,0,0,21.823,65.45Z" transform="translate(-8.356 -32.195)" fill="#434b56"/>
        <g id="Group_641" data-name="Group 641" transform="translate(16.823 12.715)">
          <path id="Path_313" data-name="Path 313" d="M41,30.435a2.176,2.176,0,1,1-2.174-2.176A2.175,2.175,0,0,1,41,30.435Z" transform="translate(-35.542 -27.148)" fill="#f69b77"/>
          <path id="Path_314" data-name="Path 314" d="M37.685,32.575a3.286,3.286,0,1,1,3.284-3.286A3.291,3.291,0,0,1,37.685,32.575Zm0-4.352a1.066,1.066,0,1,0,1.065,1.066A1.068,1.068,0,0,0,37.685,28.223Z" transform="translate(-34.397 -26.002)" fill="#434b56"/>
        </g>
        <path id="Path_315" data-name="Path 315" d="M26.015,49.467a1.811,1.811,0,1,1,1.81-1.811A1.812,1.812,0,0,1,26.015,49.467Zm0-2.22a.408.408,0,1,0,.41.409A.41.41,0,0,0,26.015,47.246Z" transform="translate(-12.398 -23.365)" fill="#434b56"/>
        <path id="Path_316" data-name="Path 316" d="M1.323,44.74A1.11,1.11,0,0,1,.3,43.2L18.111.846a1.112,1.112,0,0,1,1.024-.68h.022A26.1,26.1,0,0,1,30.313,3.523c5.31,2.962,12.129,9.2,14.456,22.1a1.111,1.111,0,0,1-.662,1.22L18.564,37.584l-.86-2.046L42.417,25.144C38.46,5.538,23.369,2.811,19.848,2.443L3.4,41.553l6.577-2.766.86,2.047-9.085,3.82A1.123,1.123,0,0,1,1.323,44.74Z" transform="translate(-0.213 -0.166)" fill="#434b56"/>
      </g>
    </g>
  </g>
</svg>
