<svg xmlns="http://www.w3.org/2000/svg" width="34" height="36" viewBox="0 0 34 36">
  <g id="_166-happy-3" data-name="166-happy-3" transform="translate(-16.12)">
    <ellipse id="Ellipse_417" data-name="Ellipse 417" cx="17" cy="16.864" rx="17" ry="16.864" transform="translate(16.12 0)" fill="#ffd93b"/>
    <path id="Path_966" data-name="Path 966" d="M99.581,66.305a16.675,16.675,0,0,1-3.548,10.308v7.749a1.078,1.078,0,0,1-1.582.946l-6.037-3.159A17.1,17.1,0,0,1,69.336,76.89,17.039,17.039,0,0,0,97.022,63.769a16.673,16.673,0,0,0-3.769-10.585A16.753,16.753,0,0,1,99.581,66.305Z" transform="translate(-49.465 -49.435)" fill="#f4c534"/>
    <path id="Path_967" data-name="Path 967" d="M101.971,125.719a5.054,5.054,0,1,1-5.059-5.047A5.047,5.047,0,0,1,101.971,125.719Z" transform="translate(-70.364 -112.196)" fill="#fff"/>
    <path id="Path_968" data-name="Path 968" d="M133.611,159.94a2.458,2.458,0,1,1-2.463-2.452A2.453,2.453,0,0,1,133.611,159.94Z" transform="translate(-104.591 -146.42)" fill="#3e4347"/>
    <g id="Group_6891" data-name="Group 6891" transform="translate(26.941 8.476)">
      <path id="Path_969" data-name="Path 969" d="M169.036,172.083c-.174.174-.55.087-.83-.193s-.358-.646-.184-.82.55-.087.82.184S169.21,171.909,169.036,172.083Z" transform="translate(-167.932 -167.434)" fill="#fff"/>
      <path id="Path_970" data-name="Path 970" d="M286.867,125.719a5.054,5.054,0,1,1-5.059-5.047A5.047,5.047,0,0,1,286.867,125.719Z" transform="translate(-269.088 -120.672)" fill="#fff"/>
    </g>
    <path id="Path_971" data-name="Path 971" d="M318.491,159.94a2.458,2.458,0,1,1-2.463-2.452A2.453,2.453,0,0,1,318.491,159.94Z" transform="translate(-276.358 -146.42)" fill="#3e4347"/>
    <path id="Path_972" data-name="Path 972" d="M353.916,172.083c-.174.174-.55.087-.83-.193s-.358-.646-.184-.82.55-.087.82.184S354.09,171.909,353.916,172.083Z" transform="translate(-312.828 -158.96)" fill="#fff"/>
    <path id="Path_973" data-name="Path 973" d="M152.933,320.5a10.357,10.357,0,0,1-16.92.069.5.5,0,0,1,.654-.717c5.106,2.763,10.307,2.717,15.624-.081A.5.5,0,0,1,152.933,320.5Z" transform="translate(-111.354 -297.245)" fill="#3e4347"/>
  </g>
</svg>
