<svg id="happy-french-fries" xmlns="http://www.w3.org/2000/svg" width="34" height="41.22" viewBox="0 0 34 41.22">
  <g id="Page-1">
    <path id="Fill-1" d="M3.327.492H5.941V2.218H3.327Z" transform="translate(-1.78 -0.492)" fill="#ffe578" fill-rule="evenodd"/>
    <path id="Fill-2" d="M3.327,1.793H5.941V22.535H3.327Z" transform="translate(-1.78 -1.004)" fill="#fc3" fill-rule="evenodd"/>
    <path id="Fill-3" d="M7.125,1.793h-.79V12.708a8.445,8.445,0,0,0,.79.973V1.793" transform="translate(-2.964 -1.004)" fill="#ecb628" fill-rule="evenodd"/>
    <path id="Fill-4" d="M8.9.492h2.614V2.218H8.9Z" transform="translate(-2.279 -0.492)" fill="#ffe578" fill-rule="evenodd"/>
    <path id="Fill-5" d="M8.9,1.793h2.614V22.535H8.9Z" transform="translate(-2.279 -1.004)" fill="#fc3" fill-rule="evenodd"/>
    <path id="Fill-6" d="M12.694,1.793H11.9V15.649q.383.207.79.388V1.793" transform="translate(-3.004 -1.004)" fill="#ecb628" fill-rule="evenodd"/>
    <path id="Fill-7" d="M14.464.492h2.614V2.218H14.464Z" transform="translate(-3.31 -0.492)" fill="#ffe578" fill-rule="evenodd"/>
    <path id="Fill-8" d="M14.464,1.793h2.614V22.535H14.464Z" transform="translate(-3.31 -1.004)" fill="#fc3" fill-rule="evenodd"/>
    <path id="Fill-9" d="M18.263,1.793h-.79V16.869q.389.081.79.141V1.793" transform="translate(-4.119 -1.004)" fill="#ecb628" fill-rule="evenodd"/>
    <path id="Fill-10" d="M20.033.492h2.614V2.218H20.033Z" transform="translate(-4.34 -0.492)" fill="#ffe578" fill-rule="evenodd"/>
    <path id="Fill-11" d="M20.033,1.793h2.614V22.535H20.033Z" transform="translate(-4.34 -1.004)" fill="#fc3" fill-rule="evenodd"/>
    <path id="Fill-12" d="M23.831,1.793h-.789V17.152q.4-.015.789-.05V1.793" transform="translate(-5.234 -1.004)" fill="#ecb628" fill-rule="evenodd"/>
    <path id="Fill-13" d="M25.6.492h2.614V2.218H25.6Z" transform="translate(-5.371 -0.492)" fill="#ffe578" fill-rule="evenodd"/>
    <path id="Fill-14" d="M25.6,1.793h2.614V22.535H25.6Z" transform="translate(-5.371 -1.004)" fill="#fc3" fill-rule="evenodd"/>
    <path id="Fill-15" d="M29.4,1.793h-.789V16.608c.268-.079.532-.166.789-.261V1.793" transform="translate(-6.348 -1.004)" fill="#ecb628" fill-rule="evenodd"/>
    <path id="Fill-16" d="M31.171.492h2.614V2.218H31.171Z" transform="translate(-6.402 -0.492)" fill="#ffe578" fill-rule="evenodd"/>
    <path id="Fill-17" d="M31.171,1.793h2.614V22.535H31.171Z" transform="translate(-6.402 -1.004)" fill="#fc3" fill-rule="evenodd"/>
    <path id="Fill-18" d="M34.969,1.793H34.18V15.016c.276-.191.54-.393.789-.6V1.793" transform="translate(-7.463 -1.004)" fill="#ecb628" fill-rule="evenodd"/>
    <path id="Fill-19" d="M36.74.492h2.614V2.218H36.74Z" transform="translate(-6.901 -0.492)" fill="#ffe578" fill-rule="evenodd"/>
    <path id="Fill-20" d="M36.74,1.793h2.614V22.535H36.74Z" transform="translate(-6.901 -1.004)" fill="#fc3" fill-rule="evenodd"/>
    <path id="Fill-21" d="M40.538,1.793h-.79V10.5l.022-.067h.768V1.793" transform="translate(-8.084 -1.004)" fill="#ecb628" fill-rule="evenodd"/>
    <path id="Fill-22" d="M31.747,16.045c-1.307,5.526-7.064,9.69-13.971,9.69s-12.663-4.163-13.97-9.69H.777L3.732,47.832H31.821l2.956-31.787h-3.03" transform="translate(-0.777 -6.612)" fill="#ef4b3a" fill-rule="evenodd"/>
    <path id="Fill-23" d="M5.385,19.289v.005c.2.217.419.425.647.625l.015.007q-.35-.306-.662-.637M2.771,16.045h0" transform="translate(-1.224 -3.287)" fill="#d9dad8" fill-rule="evenodd"/>
    <path id="Fill-24" d="M4.095,16.045h0A7.178,7.178,0,0,0,5.151,18.32v0a7.166,7.166,0,0,1-1.057-2.271" transform="translate(-1.78 -3.469)" fill="#d9b135" fill-rule="evenodd"/>
    <path id="Fill-25" d="M6.335,19.789v0a8.349,8.349,0,0,0,.79.975v-.005a8.445,8.445,0,0,1-.79-.973" transform="translate(-2.964 -4.352)" fill="#c99f2c" fill-rule="evenodd"/>
    <path id="Fill-26" d="M3.539,16.045H1.913a9.319,9.319,0,0,0,4.119,3.874c-.228-.2-.445-.408-.647-.625a8.348,8.348,0,0,1-.79-.975,7.178,7.178,0,0,1-1.057-2.275" transform="translate(-1.224 -3.288)" fill="#cc4a3b" fill-rule="evenodd"/>
    <path id="Fill-27" d="M41.05,16.045H42.6" transform="translate(-8.597 -3.696)" fill="#d9dad8" fill-rule="evenodd"/>
    <path id="Fill-28" d="M39.729,16.156l-.026.082,0,.038c.01-.036.02-.071.03-.107v-.013" transform="translate(-8.065 -3.708)" fill="#d9b135" fill-rule="evenodd"/>
    <path id="Fill-29" d="M40.538,16.045H39.77l-.022.067v.013l.022-.081h.768" transform="translate(-8.084 -3.689)" fill="#c99f2c" fill-rule="evenodd"/>
    <path id="Fill-30" d="M36.144,16.045H33.051l-.029.081c-.013.036-.026.071-.04.107l-2.791,20.4H4.252l.2,1.465H33.127l3.018-22.056" transform="translate(-2.144 3.119)" fill="#cc4a3b" fill-rule="evenodd"/>
    <path id="Fill-31" d="M30.044,32.893a1.123,1.123,0,0,0,2.245,0,1.123,1.123,0,1,0-2.245,0" transform="translate(-6.288 -6.494)" fill="#41443e" fill-rule="evenodd"/>
    <path id="Fill-32" d="M12.876,32.893a1.123,1.123,0,0,1-2.245,0,1.123,1.123,0,0,1,2.245,0" transform="translate(-2.632 -6.494)" fill="#41443e" fill-rule="evenodd"/>
    <path id="Fill-33" d="M23.284,38.324c0,.828,0,3.053-3.118,3.053s-3.118-2.225-3.118-3.053,1.4-1.5,3.118-1.5,3.118.671,3.118,1.5" transform="translate(-3.166 -6.827)" fill="#f492a6" fill-rule="evenodd"/>
    <path id="Fill-34" d="M32.26,38.189a1.04,1.04,0,1,1-1.04-1.04,1.04,1.04,0,0,1,1.04,1.04" transform="translate(-6.356 -7.559)" fill="#f492a6" fill-rule="evenodd"/>
    <path id="Fill-35" d="M10.768,38.189a1.04,1.04,0,1,0,1.04-1.04,1.039,1.039,0,0,0-1.04,1.04" transform="translate(-2.673 -7.559)" fill="#f492a6" fill-rule="evenodd"/>
    <path id="Fill-36" d="M21.263,36.824A5.921,5.921,0,0,0,19.836,37a.81.81,0,0,0,.77.762.765.765,0,0,0,.657-.415.767.767,0,0,0,.657.415A.81.81,0,0,0,22.69,37a5.923,5.923,0,0,0-1.427-.173" transform="translate(-4.263 -7.769)" fill="#f9f0d9" fill-rule="evenodd"/>
    <path id="Fill-37" d="M22.99,42.031a2.351,2.351,0,0,0-4.568,0c.46.4.234,2.885,2.284,2.885s1.824-2.483,2.284-2.885" transform="translate(-3.707 -6.399)" fill="#fcc8d4" fill-rule="evenodd"/>
  </g>
</svg>
