<svg xmlns="http://www.w3.org/2000/svg" width="80" height="80.17" viewBox="0 0 80 80.17">
  <g id="Shop" transform="translate(-2.063 -2)">
    <path id="Path_777" data-name="Path 777" d="M8.323,29.229V80.5H75.132V29.229a7.993,7.993,0,0,0,4.917-9.821L75.132,3H8.323L3.406,19.408a7.993,7.993,0,0,0,4.917,9.821Zm8.017.494a5.345,5.345,0,0,0,5.345-5.345,5.345,5.345,0,0,0,5.345,5.345H29.7a5.345,5.345,0,0,0,5.345-5.345,5.345,5.345,0,0,0,5.345,5.345h2.672a5.345,5.345,0,0,0,5.345-5.345,5.345,5.345,0,0,0,5.345,5.345h2.672a5.345,5.345,0,0,0,5.345-5.345,5.345,5.345,0,0,0,5.345,5.345h2.672v45.43H13.668V29.723Z" transform="translate(0.336 0.336)" fill="#fff" opacity="0.5"/>
    <g id="Group_6410" data-name="Group 6410" transform="translate(2.063 2)">
      <path id="Path_778" data-name="Path 778" d="M81.669,19.356l-4.921-16.4A1.336,1.336,0,0,0,75.468,2H8.66a1.336,1.336,0,0,0-1.28.953l-4.921,16.4A9.367,9.367,0,0,0,7.323,30.46V80.834A1.336,1.336,0,0,0,8.66,82.17H75.468A1.336,1.336,0,0,0,76.8,80.834V30.46a9.367,9.367,0,0,0,4.865-11.1ZM67.451,31.4h1.336V74.153H15.341V31.4h1.336a6.657,6.657,0,0,0,5.345-2.714A6.657,6.657,0,0,0,27.366,31.4h2.672a6.657,6.657,0,0,0,5.345-2.714A6.657,6.657,0,0,0,40.728,31.4H43.4a6.657,6.657,0,0,0,5.345-2.714A6.657,6.657,0,0,0,54.09,31.4h2.672a6.657,6.657,0,0,0,5.345-2.714A6.657,6.657,0,0,0,67.451,31.4ZM60.77,24.715a4.009,4.009,0,0,1-4.009,4.009H54.09a4.009,4.009,0,0,1-4.009-4.009V4.672H60.77Zm-13.362,0A4.009,4.009,0,0,1,43.4,28.723H40.728a4.009,4.009,0,0,1-4.009-4.009V4.672H47.409Zm-13.362,0a4.009,4.009,0,0,1-4.009,4.009H27.366a4.009,4.009,0,0,1-4.009-4.009V4.672H34.047ZM6.058,26.03a6.619,6.619,0,0,1-1.04-5.907L9.654,4.672H20.685V24.715a4.009,4.009,0,0,1-4.009,4.009H11.418A6.619,6.619,0,0,1,6.058,26.03ZM74.132,79.5H10V31.277a9.448,9.448,0,0,0,1.422.119h1.251V75.489A1.336,1.336,0,0,0,14,76.826H70.124a1.336,1.336,0,0,0,1.336-1.336V31.4H72.71a9.448,9.448,0,0,0,1.422-.119ZM78.07,26.03a6.619,6.619,0,0,1-5.359,2.694H67.451a4.009,4.009,0,0,1-4.009-4.009V4.672H74.474l4.635,15.45a6.619,6.619,0,0,1-1.04,5.907Z" transform="translate(-2.063 -2)" fill="#fff"/>
      <path id="Path_779" data-name="Path 779" d="M0,0H13.362V2.672H0Z" transform="translate(40.679 47.873) rotate(-45)" fill="#fff"/>
      <path id="Path_780" data-name="Path 780" d="M0,0H2.672V2.672H0Z" transform="translate(53.905 34.649) rotate(-45)" fill="#fff"/>
      <path id="Path_781" data-name="Path 781" d="M0,0H13.362V2.672H0Z" transform="translate(46.347 53.542) rotate(-45)" fill="#fff"/>
      <path id="Path_782" data-name="Path 782" d="M0,0H2.672V2.672H0Z" transform="translate(59.574 40.317) rotate(-45)" fill="#fff"/>
    </g>
  </g>
</svg>
