<?xml version="1.0" encoding="utf-8"?>
<!-- Generator: Adobe Illustrator 23.0.1, SVG Export Plug-In . SVG Version: 6.00 Build 0)  -->
<svg version="1.1" id="Layer_1" xmlns="http://www.w3.org/2000/svg" xmlns:xlink="http://www.w3.org/1999/xlink" x="0px" y="0px"
	 viewBox="0 0 512 512" style="enable-background:new 0 0 512 512;" xml:space="preserve">
<style type="text/css">
	.st0{fill-rule:evenodd;clip-rule:evenodd;fill:#1B1B1B;}
</style>
<path class="st0" d="M417.5,406l35.7,35.8c3.2,3.3,3.2,8.5,0,11.8c-1.6,1.6-3.8,2.4-5.9,2.4s-4.3-0.8-5.9-2.4l-35.7-35.8L370,453.6
	c-1.6,1.6-3.8,2.4-5.9,2.4c-2.1,0-4.3-0.8-5.9-2.4c-3.3-3.3-3.3-8.5,0-11.8l35.7-35.8l-35.7-35.8c-3.3-3.3-3.3-8.5,0-11.8
	c3.2-3.3,8.5-3.3,11.8,0l35.7,35.8l35.7-35.8c3.2-3.3,8.5-3.3,11.8,0c3.2,3.3,3.2,8.5,0,11.8L417.5,406z M328.4,341.8
	c3.2,3.3,3.2,8.5,0,11.8c-1.6,1.6-3.8,2.4-5.9,2.4c-2.1,0-4.2-0.8-5.9-2.4L300,336.9c-0.1-0.1-0.1-0.2-0.2-0.3
	c-0.1-0.1-0.2-0.2-0.3-0.3c-0.3-0.3-0.4-0.8-0.6-1.1c-0.3-0.5-0.6-0.9-0.8-1.4c-0.2-0.5-0.2-1-0.3-1.6c-0.1-0.5-0.2-1-0.1-1.6
	c0-0.5,0.2-1,0.3-1.6c0.1-0.5,0.2-1,0.5-1.5c0.2-0.5,0.6-0.9,0.9-1.4c0.3-0.4,0.4-0.8,0.7-1.1c0.1-0.1,0.2-0.1,0.3-0.2
	c0.1-0.1,0.1-0.2,0.3-0.3c46.3-38.2,47.5-109.5,47.5-110.2v-75C341,99.2,294.2,73,256.7,72.7l-0.7,0c-37.7,0-84.3,28.1-91.4,68.5
	l-0.1,75.4c0,0.7,0.6,69.8,46.9,108c0.5,0.4,0.7,0.9,1.1,1.3c0.3,0.4,0.7,0.7,0.9,1.1c0,0,0,0.1,0,0.1c0.4,0.7,0.6,1.5,0.7,2.3
	c0.1,0.3,0.2,0.5,0.2,0.8c0.1,0.6-0.1,1.1-0.1,1.7c-0.1,0.5,0,1-0.1,1.5c-0.1,0.3-0.3,0.5-0.4,0.8c-0.3,0.7-0.6,1.4-1.1,2.1
	c0,0,0,0.1,0,0.1c-0.2,0.2-0.4,0.3-0.6,0.4c-0.6,0.6-1.1,1.2-1.9,1.6L73,413.7v21c0,2.5,2,4.6,4.4,4.6h245.1c4.6,0,8.3,3.7,8.3,8.3
	c0,4.6-3.7,8.3-8.3,8.3H77.5c-11.6,0-21.1-9.5-21.1-21.3v-25.9c0-3,1.6-5.8,4.3-7.3l131.2-72.2c-43.6-43.8-44.1-109.7-44.1-112.7
	l0.1-76.1l0.1-1.4c8.2-49.4,61.9-82.7,107.2-83.1l0.8,0c45.5,0,99.7,33.4,108,83.1l0.1,1.4l0,76.1c0,3-0.6,70.8-46.2,114.7
	L328.4,341.8z"/>
</svg>
