<svg xmlns="http://www.w3.org/2000/svg" width="194.415" height="162.257" viewBox="0 0 194.415 162.257">
  <g id="usher" transform="translate(-3.824 -20.981)">
    <path id="Path_844" data-name="Path 844" d="M122.118,82.684h-5.333c0,.086.009.17.009.255v2.586c.059,0,.116-.009.175-.009a8.434,8.434,0,0,1,7.412,4.377V81.922A3.766,3.766,0,0,1,122.118,82.684Z" transform="translate(-28.613 -16.751)" fill="#4671c6"/>
    <path id="Path_845" data-name="Path 845" d="M37.146,73.805c-.4-.3-.776-.616-1.139-.942-.018-.016-.034-.034-.053-.051-.349-.318-.68-.649-1-.99V85.174a8.426,8.426,0,0,1,5.7-2.216c.059,0,.116.007.175.009V80.381a27.162,27.162,0,0,1,.344-4.246A21.954,21.954,0,0,1,37.146,73.805Z" transform="translate(-7.886 -14.192)" fill="#4671c6"/>
    <path id="Path_846" data-name="Path 846" d="M86.253,140.447H81.777l-.029,0v0H52.3a14.084,14.084,0,0,0-14.084,14.084v58.789h62.118V154.531a14.084,14.084,0,0,0-14.084-14.084ZM69.278,177.2l-16.664-36.75H85.943Z" transform="translate(-8.712 -31.574)" fill="#4671c6"/>
    <path id="Path_847" data-name="Path 847" d="M57.5,140.448,74.161,177.2l16.664-36.75Z" transform="translate(-13.595 -31.575)" fill="#e0ebfc"/>
    <path id="Path_848" data-name="Path 848" d="M99.83,214.306H37.712a1.494,1.494,0,0,1-1.493-1.493V154.025A15.6,15.6,0,0,1,51.8,138.447H81.168c.046,0,.09,0,.145,0h4.433a15.6,15.6,0,0,1,15.578,15.578v58.788a1.494,1.494,0,0,1-1.493,1.493Zm-60.625-2.987H98.337V154.025a12.6,12.6,0,0,0-12.591-12.591H51.8a12.6,12.6,0,0,0-12.591,12.591Z" transform="translate(-8.206 -31.068)" fill="#3762cc"/>
    <path id="Path_849" data-name="Path 849" d="M168.435,172.949h-37.87l-10.474-20.534a14.02,14.02,0,0,1,.984,5.148v39.692h47.359a1.334,1.334,0,0,0,1.334-1.334V174.286a1.335,1.335,0,0,0-1.334-1.337Z" transform="translate(-29.451 -34.607)" fill="#4671c6"/>
    <path id="Path_850" data-name="Path 850" d="M118.385,149.084c.014.022.026.044.04.066l-.04-.079Z" transform="translate(-29.018 -33.759)" fill="#4671c6"/>
    <path id="Path_851" data-name="Path 851" d="M117.919,150.136a1.493,1.493,0,0,1-1.266-.7l-.043-.072a1.4,1.4,0,0,1-.222-.709v-.014a1.493,1.493,0,0,1,2.825-.751l.04.079a1.5,1.5,0,0,1-1.333,2.168Z" transform="translate(-28.512 -33.252)" fill="#3762cc"/>
    <path id="Path_852" data-name="Path 852" d="M167.928,198.241H120.568a1.494,1.494,0,0,1-1.493-1.493V157.057a12.522,12.522,0,0,0-.881-4.6,1.493,1.493,0,0,1,2.72-1.225l10.058,19.718h36.956a2.831,2.831,0,0,1,2.828,2.829v21.636a2.831,2.831,0,0,1-2.828,2.828Zm-45.866-2.987h45.707V173.936H130.057a1.491,1.491,0,0,1-1.33-.815l-6.666-13.067Zm45.866-21.318h.007Z" transform="translate(-28.944 -34.1)" fill="#3762cc"/>
    <path id="Path_853" data-name="Path 853" d="M75.515,144.353l7.752-5.7,4.779-3.516h.042v-1.785a27.869,27.869,0,0,1-25.056,0v1.788l4.779,3.516Z" transform="translate(-14.997 -29.776)" fill="#f9cfcf"/>
    <path id="Path_854" data-name="Path 854" d="M95.319,76.578c-.059,0-.116.007-.175.009V74a27.617,27.617,0,0,0-55.232,0v2.586c-.059,0-.116-.009-.175-.009a8.35,8.35,0,1,0,0,16.7,8.614,8.614,0,0,0,.9-.049,27.671,27.671,0,0,0,53.773,0,8.6,8.6,0,0,0,.9.049,8.35,8.35,0,1,0,0-16.7Z" transform="translate(-6.963 -7.812)" fill="#f9cfcf"/>
    <path id="Path_855" data-name="Path 855" d="M58.583,100.656a3.338,3.338,0,0,1-3.334-3.333V91.767a3.334,3.334,0,1,1,6.667,0v5.556a3.337,3.337,0,0,1-3.333,3.333Z" transform="translate(-13.026 -18.4)" fill="#3762cc"/>
    <path id="Path_856" data-name="Path 856" d="M98.607,100.656a3.338,3.338,0,0,1-3.334-3.333V91.767a3.334,3.334,0,1,1,6.667,0v5.556a3.337,3.337,0,0,1-3.333,3.333Z" transform="translate(-23.164 -18.4)" fill="#3762cc"/>
    <path id="Path_857" data-name="Path 857" d="M67.021,115.343A28.929,28.929,0,0,1,38.989,94.261a9.838,9.838,0,0,1-1.077-19.6V73.495a29.11,29.11,0,0,1,58.219,0v1.171a9.838,9.838,0,0,1-1.077,19.6A28.929,28.929,0,0,1,67.021,115.343ZM40.136,91.227a1.493,1.493,0,0,1,1.452,1.151,26.178,26.178,0,0,0,50.867,0,1.491,1.491,0,0,1,1.611-1.142,7.046,7.046,0,0,0,.747.041,6.857,6.857,0,1,0,.017-13.712l-.155.008a1.47,1.47,0,0,1-1.08-.424,1.5,1.5,0,0,1-.451-1.069V73.493a26.124,26.124,0,0,0-52.245,0v2.586a1.494,1.494,0,0,1-1.531,1.493l-.145-.007h0a6.856,6.856,0,1,0,.009,13.712,7.252,7.252,0,0,0,.747-.041c.053-.005.106-.008.158-.008Z" transform="translate(-6.456 -7.305)" fill="#3762cc"/>
    <path id="Path_858" data-name="Path 858" d="M78.007,120.268a6.882,6.882,0,0,0,3.439-.849,6.718,6.718,0,0,0,1.962-1.7,6.623,6.623,0,0,0,1.34-3.214A.751.751,0,0,0,84,113.66H70.551a.751.751,0,0,0-.747.841,6.623,6.623,0,0,0,1.34,3.214,6.728,6.728,0,0,0,1.962,1.7,6.882,6.882,0,0,0,3.439.849Z" transform="translate(-16.711 -24.79)" fill="#f9a7a7"/>
    <path id="Path_859" data-name="Path 859" d="M78.148,148.087l-4.719,7.3.718,4.715h8l.718-4.715Z" transform="translate(-17.631 -33.51)" fill="#f9a7a7"/>
    <path id="Path_860" data-name="Path 860" d="M54.6,140.448h-.311a14.015,14.015,0,0,0-8.227,2.656L52.1,156.821a1.313,1.313,0,0,0,1.2.784h2.452a.656.656,0,0,1,.343,1.216l-1.393.853a1.312,1.312,0,0,0-.376,1.891l16.942,23.263V177.2Z" transform="translate(-10.699 -31.575)" fill="#4671c6"/>
    <path id="Path_861" data-name="Path 861" d="M95.328,157.6H97.78a1.311,1.311,0,0,0,1.2-.784l6.034-13.717a14.015,14.015,0,0,0-8.227-2.656h-.311L79.813,177.2v7.629l16.942-23.263a1.312,1.312,0,0,0-.376-1.891l-1.393-.853A.656.656,0,0,1,95.328,157.6Z" transform="translate(-19.248 -31.575)" fill="#4671c6"/>
    <path id="Path_862" data-name="Path 862" d="M120.574,71.166h-6.082a3.8,3.8,0,0,1-3.8-3.8V40.249a3.8,3.8,0,0,1,3.8-3.8,9.883,9.883,0,0,1,9.883,9.883V67.365a3.8,3.8,0,0,1-3.8,3.8Z" transform="translate(-27.069 -5.232)" fill="#4671c6"/>
    <path id="Path_863" data-name="Path 863" d="M114.057,176.464H104.92a.747.747,0,0,1-.747-.747v-2.937a.747.747,0,0,1,.747-.747h9.137a.747.747,0,0,1,.747.747v2.937A.746.746,0,0,1,114.057,176.464Z" transform="translate(-25.418 -39.576)" fill="#ffea92"/>
    <path id="Path_864" data-name="Path 864" d="M212.6,17.793H147.976a9.3,9.3,0,0,0-9.305,9.305V58.989a9.3,9.3,0,0,0,9.305,9.305h16.45l-.871,13.745a1.551,1.551,0,0,0,2.407,1.39L188.72,68.295H212.6a9.3,9.3,0,0,0,9.305-9.305V27.1a9.306,9.306,0,0,0-9.306-9.305Z" transform="translate(-25.157 25.493)" fill="#a4c9ff"/>
    <path id="Path_873" data-name="Path 873" d="M233.891,184.532a4.455,4.455,0,0,0-6.059-1.61l-10.094,5.78a3.493,3.493,0,0,1-2.351.408l-13.169-2.351-1.83-.21H211.2a4.4,4.4,0,0,0,4.4-4.4,1.382,1.382,0,0,0-1.382-1.382H201.719a6.059,6.059,0,0,0-2.537.557l-8.2,3.783a9.747,9.747,0,0,1-4.086.9h-.278v11.563h2.419l27.557-2.419.06,0,.8-.065a4.672,4.672,0,0,0,1.849-.594l14.081-8.063a1.379,1.379,0,0,0,.508-1.89Z" transform="translate(-46.303 -41.788)" fill="#f9cfcf"/>
    <path id="Path_874" data-name="Path 874" d="M188.533,198.554h-2.419a1.494,1.494,0,0,1-1.493-1.493V185.5A1.494,1.494,0,0,1,186.114,184h.277a8.319,8.319,0,0,0,3.461-.76l8.2-3.782a7.6,7.6,0,0,1,3.162-.694H213.7a2.879,2.879,0,0,1,2.876,2.876,5.9,5.9,0,0,1-3.107,5.192l1.67.3a2.008,2.008,0,0,0,1.346-.234l10.095-5.78a5.958,5.958,0,0,1,8.091,2.155h0a2.871,2.871,0,0,1-1.06,3.935l-14.08,8.063a6.142,6.142,0,0,1-2.439.784l-.826.067-27.608,2.424A1.282,1.282,0,0,1,188.533,198.554Zm-.925-2.987h.859l27.491-2.413.08-.007.784-.063a3.137,3.137,0,0,0,1.228-.4l13.981-8.005a2.965,2.965,0,0,0-3.964-.964l-10.095,5.78a5,5,0,0,1-3.355.582l-13.123-2.343-1.784-.2a1.493,1.493,0,0,1,.169-2.977h10.808a2.909,2.909,0,0,0,2.9-2.794H201.21a4.579,4.579,0,0,0-1.91.42l-8.2,3.783a11.336,11.336,0,0,1-3.5.968v8.642Z" transform="translate(-45.796 -41.282)" fill="#3762cc"/>
    <path id="Path_875" data-name="Path 875" d="M70.758,185.814a1.494,1.494,0,0,1-1.207-.615L52.61,161.937a2.8,2.8,0,0,1,.035-3.35,2.808,2.808,0,0,1-2.421-1.672L44.189,143.2a1.493,1.493,0,0,1,.494-1.812,15.466,15.466,0,0,1,9.1-2.938h.311a1.492,1.492,0,0,1,1.36.877l16.664,36.751a1.494,1.494,0,0,1,.134.617v7.629a1.493,1.493,0,0,1-1.493,1.493ZM55.139,160.337l14.125,19.4v-2.719L53.138,141.451a12.468,12.468,0,0,0-5.706,1.7l5.477,12.45h2.333a2.15,2.15,0,0,1,1.122,3.983Z" transform="translate(-10.192 -31.068)" fill="#3762cc"/>
    <path id="Path_876" data-name="Path 876" d="M79.306,185.814a1.493,1.493,0,0,1-1.493-1.493v-7.629a1.491,1.491,0,0,1,.134-.617l16.664-36.751a1.493,1.493,0,0,1,1.36-.877h.311a15.47,15.47,0,0,1,9.1,2.938,1.493,1.493,0,0,1,.494,1.812l-6.035,13.717a2.805,2.805,0,0,1-2.421,1.672,2.8,2.8,0,0,1,.035,3.35L80.514,185.2a1.5,1.5,0,0,1-1.207.614Zm1.493-8.8v2.719l14.125-19.4-1.226-.75a2.149,2.149,0,0,1,1.122-3.983h2.333l5.477-12.45a12.473,12.473,0,0,0-5.706-1.7ZM95.093,160.44H95.1Z" transform="translate(-18.741 -31.068)" fill="#3762cc"/>
    <path id="Path_877" data-name="Path 877" d="M30.013,186.673v-30.3a14.005,14.005,0,0,1,2.979-8.642L7.021,172.88a3.936,3.936,0,0,0-1.2,2.828v16.424a3.937,3.937,0,0,0,3.937,3.937H30.013Z" transform="translate(-0.506 -33.421)" fill="#4671c6"/>
    <path id="Path_878" data-name="Path 878" d="M46.041,144.019v-.014l-.059.057Z" transform="translate(-10.679 -32.476)" fill="#4671c6"/>
    <path id="Path_879" data-name="Path 879" d="M29.507,197.056H9.253a5.436,5.436,0,0,1-5.429-5.43V175.2a5.461,5.461,0,0,1,1.653-3.9l25.97-25.144a1.493,1.493,0,0,1,2.217,1.991A12.456,12.456,0,0,0,31,155.871v39.691a1.5,1.5,0,0,1-1.494,1.494Zm-1.308-43.6L7.554,173.447A2.457,2.457,0,0,0,6.81,175.2v16.424a2.446,2.446,0,0,0,2.442,2.443h18.76v-38.2A15.757,15.757,0,0,1,28.2,153.459Z" transform="translate(0 -32.915)" fill="#3762cc"/>
    <path id="Path_880" data-name="Path 880" d="M130.612,184.532a4.455,4.455,0,0,0-6.059-1.61l-10.094,5.78a3.493,3.493,0,0,1-2.351.408L98.94,186.759l-1.83-.21h10.808a4.4,4.4,0,0,0,4.4-4.4,1.382,1.382,0,0,0-1.382-1.382H98.44a6.059,6.059,0,0,0-2.537.557l-8.2,3.783a9.747,9.747,0,0,1-4.086.9h-.278v11.563h2.419l27.557-2.419.06,0,.8-.065a4.672,4.672,0,0,0,1.849-.594l14.081-8.063a1.38,1.38,0,0,0,.508-1.89Z" transform="translate(-20.142 -41.788)" fill="#f9cfcf"/>
    <path id="Path_881" data-name="Path 881" d="M85.254,198.554H82.835a1.494,1.494,0,0,1-1.493-1.493V185.5A1.494,1.494,0,0,1,82.835,184h.278a8.316,8.316,0,0,0,3.46-.76l8.2-3.782a7.6,7.6,0,0,1,3.162-.694h12.495a2.879,2.879,0,0,1,2.876,2.876,5.9,5.9,0,0,1-3.108,5.192l1.67.3a2.011,2.011,0,0,0,1.347-.234l10.094-5.78a5.958,5.958,0,0,1,8.091,2.155,2.87,2.87,0,0,1-1.06,3.937l-14.081,8.063a6.119,6.119,0,0,1-2.438.784l-.827.067-27.607,2.424c-.046,0-.089.005-.132.005Zm-.926-2.987h.86l27.491-2.413.076-.006.789-.064a3.149,3.149,0,0,0,1.228-.4l13.981-8.006a2.966,2.966,0,0,0-3.963-.964l-10.095,5.78a4.994,4.994,0,0,1-3.355.582l-13.123-2.343-1.784-.2a1.493,1.493,0,0,1,.17-2.977h10.808a2.909,2.909,0,0,0,2.9-2.794H97.932a4.587,4.587,0,0,0-1.911.42l-8.2,3.782a11.338,11.338,0,0,1-3.5.968v8.643Zm44.486-10.79h.008Z" transform="translate(-19.635 -41.282)" fill="#3762cc"/>
    <path id="Path_882" data-name="Path 882" d="M77.952,183.21l5.423-11.958-1.471-7.07h-8l-1.44,6.924Z" transform="translate(-17.386 -37.587)" fill="#f9a7a7"/>
    <path id="Path_883" data-name="Path 883" d="M81.642,161.091h-8a1.494,1.494,0,0,1-1.476-1.269l-.718-4.715a1.493,1.493,0,0,1,.222-1.036l4.719-7.3a1.493,1.493,0,0,1,2.509,0l4.718,7.3a1.493,1.493,0,0,1,.222,1.036l-.718,4.715A1.494,1.494,0,0,1,81.642,161.091ZM74.925,158.1h5.434l.44-2.887-3.157-4.886-3.158,4.886Z" transform="translate(-17.125 -33.003)" fill="#3762cc"/>
    <path id="Path_884" data-name="Path 884" d="M77.444,184.2a1.492,1.492,0,0,1-1.36-.877L70.6,171.215a1.5,1.5,0,0,1-.1-.921l1.44-6.924a1.493,1.493,0,0,1,1.462-1.189h8a1.493,1.493,0,0,1,1.462,1.189l1.471,7.07a1.49,1.49,0,0,1-.1.921L78.8,183.321A1.491,1.491,0,0,1,77.444,184.2Zm-3.928-13.772,3.928,8.662,3.862-8.516-1.125-5.4H74.611Z" transform="translate(-16.88 -37.08)" fill="#3762cc"/>
    <path id="Path_885" data-name="Path 885" d="M79.306,229.362a1.494,1.494,0,0,1-1.493-1.493V199.376a1.493,1.493,0,0,1,2.987,0v28.492A1.493,1.493,0,0,1,79.306,229.362Z" transform="translate(-18.741 -46.124)" fill="#3762cc"/>
    <path id="Path_886" data-name="Path 886" d="M65.754,204.22H19.8V179.915h45.95a1.493,1.493,0,0,1,1.493,1.493v21.318A1.493,1.493,0,0,1,65.754,204.22Z" transform="translate(-4.048 -41.572)" fill="#4671c6"/>
    <path id="Path_887" data-name="Path 887" d="M65.247,205.207H19.3a1.493,1.493,0,0,1,0-2.987h45.95V180.9H19.3a1.493,1.493,0,0,1,0-2.987h45.95a2.99,2.99,0,0,1,2.987,2.987V202.22A2.99,2.99,0,0,1,65.247,205.207Z" transform="translate(-3.541 -41.066)" fill="#3762cc"/>
    <path id="Path_888" data-name="Path 888" d="M79.749,144.96l3.875,7.3a1.068,1.068,0,0,0,1.755.2l10.831-12.6a1.069,1.069,0,0,0,.094-1.266l-1.192-1.9a2.036,2.036,0,0,0-1.724-.953H92.28Z" transform="translate(-19.232 -30.383)" fill="#e0ebfc"/>
    <path id="Path_889" data-name="Path 889" d="M84.063,153.816a2.609,2.609,0,0,1-.285-.016,2.562,2.562,0,0,1-1.98-1.346l-3.875-7.3a1.492,1.492,0,0,1,.435-1.9l12.531-9.22a1.491,1.491,0,0,1,.885-.29h1.108a3.51,3.51,0,0,1,2.988,1.651l1.192,1.9a2.549,2.549,0,0,1-.226,3.034L86,152.923A2.555,2.555,0,0,1,84.063,153.816Zm-2.9-8.925,2.979,5.614,10.221-11.893-1.025-1.631a.54.54,0,0,0-.459-.254h-.618Z" transform="translate(-18.725 -29.876)" fill="#3762cc"/>
    <path id="Path_890" data-name="Path 890" d="M74.142,144.96l-3.875,7.3a1.068,1.068,0,0,1-1.755.2l-10.831-12.6a1.069,1.069,0,0,1-.094-1.266l1.192-1.9a2.036,2.036,0,0,1,1.724-.953h1.108Z" transform="translate(-13.577 -30.383)" fill="#e0ebfc"/>
    <path id="Path_891" data-name="Path 891" d="M68.814,153.816a2.562,2.562,0,0,1-1.943-.892l-10.83-12.6a2.548,2.548,0,0,1-.226-3.035l1.191-1.9a3.51,3.51,0,0,1,2.988-1.651H61.1a1.491,1.491,0,0,1,.885.29l12.531,9.219a1.494,1.494,0,0,1,.435,1.9l-3.875,7.3a2.562,2.562,0,0,1-2.263,1.361Zm-10.3-15.2L68.731,150.5l2.979-5.614-11.1-8.165h-.618a.54.54,0,0,0-.459.254Z" transform="translate(-13.069 -29.876)" fill="#3762cc"/>
    <path id="Path_892" data-name="Path 892" d="M120.068,72.153h-6.082a5.3,5.3,0,0,1-5.295-5.294V39.743a5.3,5.3,0,0,1,5.295-5.294,11.389,11.389,0,0,1,11.377,11.376V66.859a5.3,5.3,0,0,1-5.295,5.294Zm-6.082-34.718a2.31,2.31,0,0,0-2.308,2.307V66.858a2.31,2.31,0,0,0,2.308,2.307h6.082a2.31,2.31,0,0,0,2.308-2.307V45.825a8.4,8.4,0,0,0-8.39-8.39Z" transform="translate(-26.563 -4.726)" fill="#3762cc"/>
    <path id="Path_893" data-name="Path 893" d="M164.6,84.678a3.051,3.051,0,0,1-3.04-3.24l.771-12.158H147.47a10.811,10.811,0,0,1-10.8-10.8V26.592a10.81,10.81,0,0,1,10.8-10.8h64.621a10.811,10.811,0,0,1,10.8,10.8v31.89a10.81,10.81,0,0,1-10.8,10.8H188.664L166.281,84.166a3.032,3.032,0,0,1-1.684.512Zm-17.128-65.9a7.821,7.821,0,0,0-7.812,7.812v31.89a7.821,7.821,0,0,0,7.812,7.812h16.45a1.493,1.493,0,0,1,1.49,1.587l-.871,13.745.089.052,22.759-15.133a1.493,1.493,0,0,1,.827-.249h23.878a7.821,7.821,0,0,0,7.812-7.812V26.592a7.821,7.821,0,0,0-7.812-7.812H147.47Z" transform="translate(-24.65 26)" fill="#3762cc"/>
    <path id="Path_894" data-name="Path 894" d="M77.627,121.009H76.165a8.027,8.027,0,0,1-4-1,7.788,7.788,0,0,1-3.854-5.747,1.871,1.871,0,0,1,1.857-2.1H83.622a1.871,1.871,0,0,1,1.857,2.1,7.788,7.788,0,0,1-3.854,5.746A8.02,8.02,0,0,1,77.627,121.009Zm-7.02-6.608a5.551,5.551,0,0,0,2.678,3.668,5.786,5.786,0,0,0,2.881.7h1.462a5.786,5.786,0,0,0,2.881-.7,5.587,5.587,0,0,0,1.635-1.42,5.52,5.52,0,0,0,1.042-2.248Z" transform="translate(-16.331 -24.41)" fill="#3762cc"/>
    <path id="Path_895" data-name="Path 895" d="M82.64,32.659H51.649a33.321,33.321,0,0,1-11.089-1.825c-3.232-1.14-6.613-2.918-8.539-5.645a1.188,1.188,0,0,0-2.037.3c-2.012,7.4-6.238,27.759,5.284,36.39a18.552,18.552,0,0,0,5.448,2.8l0-.015a15.268,15.268,0,0,0,4.721.756H74.486c8.364,0,15.145-6.435,15.145-14.374V39.291a6.818,6.818,0,0,0-6.99-6.633Z" transform="translate(-6.008 -2.266)" fill="#4671c6"/>
    <path id="Path_896" data-name="Path 896" d="M73.974,66.406H44.927a16.758,16.758,0,0,1-4.972-.762l-.09-.018a19.892,19.892,0,0,1-6-3.056c-12.118-9.078-8.116-29.583-5.832-37.978a2.535,2.535,0,0,1,2.058-1.809,2.655,2.655,0,0,1,2.64,1.038c1.461,2.068,4.09,3.784,7.816,5.1a31.76,31.76,0,0,0,10.593,1.74H82.13a8.32,8.32,0,0,1,8.483,8.127V50.54C90.612,59.288,83.148,66.406,73.974,66.406Zm-33.6-3.733a1.463,1.463,0,0,1,.3.063,13.817,13.817,0,0,0,4.26.682H73.974c7.527,0,13.65-5.778,13.65-12.881V38.785a5.333,5.333,0,0,0-5.5-5.14H51.137a34.724,34.724,0,0,1-11.587-1.91c-4-1.411-6.967-3.3-8.833-5.624-1.778,6.86-5.609,26.168,4.934,34.067a17.338,17.338,0,0,0,4.718,2.5Z" transform="translate(-5.497 -1.76)" fill="#3762cc"/>
    <text id="_" data-name="" transform="translate(155.271 78.335)" fill="#fff" font-size="26" font-family="FontAwesome5Pro-Regular, 'Font Awesome 5 Pro'"><tspan x="-13" y="0"></tspan></text>
  </g>
</svg>
