<svg id="_047-pancake" data-name="047-pancake" xmlns="http://www.w3.org/2000/svg" width="41.391" height="41.391" viewBox="0 0 41.391 41.391">
  <path id="Path_952" data-name="Path 952" d="M80.3,202.348C80.3,196.633,71.872,192,61.482,192s-18.814,4.633-18.814,10.348v3.763c0,5.715,8.423,10.348,18.814,10.348S80.3,211.825,80.3,206.11Zm0,0" transform="translate(-38.905 -175.067)" fill="#fdcf6d"/>
  <path id="Path_953" data-name="Path 953" d="M61.482,362.348c-10.374,0-18.814-4.643-18.814-10.348h1.881c0,4.51,7.912,8.466,16.933,8.466S78.414,356.51,78.414,352H80.3C80.3,357.7,71.856,362.348,61.482,362.348Zm0,0" transform="translate(-38.905 -320.957)" fill="#fdbc34"/>
  <path id="Path_954" data-name="Path 954" d="M80.3,202.348C80.3,196.633,71.872,192,61.482,192s-18.814,4.633-18.814,10.348S51.091,212.7,61.482,212.7,80.3,208.062,80.3,202.348Zm0,0" transform="translate(-38.905 -175.067)" fill="#fdab00"/>
  <path id="Path_955" data-name="Path 955" d="M87.2,210.193c0-4.156-7.581-7.525-16.933-7.525s-16.933,3.369-16.933,7.525,7.581,7.525,16.933,7.525S87.2,214.35,87.2,210.193Zm0,0" transform="translate(-48.629 -184.795)" fill="#f59707"/>
  <path id="Path_956" data-name="Path 956" d="M61.482,212.7c-10.374,0-18.814-4.643-18.814-10.348h1.881c0,4.511,7.912,8.466,16.933,8.466s16.933-3.955,16.933-8.466-7.912-8.466-16.933-8.466V192c10.374,0,18.814,4.643,18.814,10.348S71.856,212.7,61.482,212.7Zm0,0" transform="translate(-38.905 -175.067)" fill="#f59707"/>
  <path id="Path_957" data-name="Path 957" d="M0,245.332c0,5.715,8.423,10.348,18.814,10.348s18.814-4.633,18.814-10.348" transform="translate(0 -223.696)" fill="#fdcf6d"/>
  <path id="Path_958" data-name="Path 958" d="M18.814,109.79C8.44,109.79,0,105.147,0,99.443V95.68c0-5.7,8.44-10.348,18.814-10.348S37.628,89.975,37.628,95.68v3.763C37.628,105.147,29.188,109.79,18.814,109.79Zm0-22.577c-9.02,0-16.933,3.955-16.933,8.466v3.763c0,4.511,7.912,8.466,16.933,8.466s16.933-3.955,16.933-8.466V95.68C35.746,91.169,27.834,87.214,18.814,87.214Zm0,0" transform="translate(0 -77.807)" fill="#fdbc34"/>
  <path id="Path_959" data-name="Path 959" d="M37.628,95.68c0-5.715-8.424-10.348-18.814-10.348S0,89.965,0,95.68s8.423,10.348,18.814,10.348S37.628,101.395,37.628,95.68Zm0,0" transform="translate(0 -77.807)" fill="#fdab00"/>
  <path id="Path_960" data-name="Path 960" d="M18.814,106.028C8.44,106.028,0,101.385,0,95.68H1.881c0,4.51,7.912,8.466,16.933,8.466s16.933-3.956,16.933-8.466-7.912-8.466-16.933-8.466V85.332c10.374,0,18.814,4.643,18.814,10.348S29.188,106.028,18.814,106.028Zm0,0" transform="translate(0 -77.807)" fill="#f59707"/>
  <path id="Path_961" data-name="Path 961" d="M80.3,10.348C80.3,4.633,71.872,0,61.482,0S42.668,4.633,42.668,10.348V14.11c0,5.715,8.423,10.348,18.814,10.348S80.3,19.825,80.3,14.11Zm0,0" transform="translate(-38.905)" fill="#fdcf6d"/>
  <path id="Path_962" data-name="Path 962" d="M61.482,170.348c-10.374,0-18.814-4.643-18.814-10.348h1.881c0,4.51,7.912,8.466,16.933,8.466S78.414,164.51,78.414,160H80.3C80.3,165.7,71.856,170.348,61.482,170.348Zm0,0" transform="translate(-38.905 -145.89)" fill="#fdbc34"/>
  <path id="Path_963" data-name="Path 963" d="M80.3,10.348C80.3,4.633,71.872,0,61.482,0S42.668,4.633,42.668,10.348,51.091,20.7,61.482,20.7,80.3,16.062,80.3,10.348Zm0,0" transform="translate(-38.905)" fill="#fdbc34"/>
  <path id="Path_964" data-name="Path 964" d="M65.881,29.8H64c0-4.51,7.912-8.466,16.933-8.466v1.882C71.885,23.214,65.881,27.177,65.881,29.8Zm0,0" transform="translate(-58.356 -19.451)" fill="#fdcf6d"/>
  <path id="Path_965" data-name="Path 965" d="M61.482,20.7c-10.374,0-18.814-4.643-18.814-10.348h1.881c0,4.511,7.912,8.466,16.933,8.466s16.933-3.955,16.933-8.466S70.5,1.881,61.482,1.881V0C71.856,0,80.3,4.643,80.3,10.348S71.856,20.7,61.482,20.7Zm0,0" transform="translate(-38.905)" fill="#fdab00"/>
</svg>
