<svg xmlns="http://www.w3.org/2000/svg" width="65" height="65.001" viewBox="0 0 65 65.001">
  <g id="_170-happy-2" data-name="170-happy-2" transform="translate(0.229 0.231)">
    <circle id="Ellipse_460" data-name="Ellipse 460" cx="32.5" cy="32.5" r="32.5" transform="translate(-0.229 -0.231)" fill="#ffd93b"/>
    <path id="Path_1115" data-name="Path 1115" d="M114.406,81.969a32.437,32.437,0,0,1-57.685,20.363A32.438,32.438,0,0,0,102.333,56.72,32.4,32.4,0,0,1,114.406,81.969Z" transform="translate(-49.635 -49.635)" fill="#f4c534"/>
    <path id="Path_1116" data-name="Path 1116" d="M288.04,313.746s1.229-6.633-1.754-6.759c-1.569-.067-2.672,3.7-3.623,8.9a10.633,10.633,0,0,0,4.517,11.227c3.823,2.8,7.855,2.291,11.7.458,4.764-2.273,8.709-11.048,8.77-13.2.091-3.335-2.607-3.4-6.26,4.448h0c.48-1.48,4.2-8.137,4.967-9.7.8-1.632-1.456-3.785-3.017-1.729s-6.108,8.5-6.447,10.073h0c.3-1.22,6.595-11.283,6.884-12.992.345-2.041-2.522-2.556-3.489-1.1-.705,1.058-7.371,12.113-7.371,12.113h0s5.48-9.123,5.206-10.9a1.764,1.764,0,0,0-3.006-.815C294.117,304.8,288.04,313.746,288.04,313.746Z" transform="translate(-246.75 -264.313)" fill="#fff"/>
    <path id="Path_1117" data-name="Path 1117" d="M290.8,404.455a11.869,11.869,0,0,0,3.684,4.18c3.823,2.8,7.855,2.291,11.7.458,4.764-2.273,8.711-11.048,8.77-13.205C314.951,395.888,306.694,416.326,290.8,404.455Z" transform="translate(-254.056 -345.83)" fill="#dee4e9"/>
    <path id="Path_1118" data-name="Path 1118" d="M50.169,313.746s-1.229-6.633,1.754-6.759c1.569-.067,2.672,3.7,3.623,8.9a10.633,10.633,0,0,1-4.517,11.227c-3.823,2.8-7.855,2.291-11.7.458-4.764-2.273-8.709-11.048-8.77-13.2-.091-3.335,2.607-3.4,6.26,4.448h0c-.48-1.48-4.2-8.137-4.967-9.7-.8-1.632,1.454-3.785,3.017-1.729s6.108,8.5,6.447,10.073h0c-.3-1.22-6.595-11.283-6.884-12.992-.345-2.041,2.522-2.556,3.489-1.1.705,1.058,7.371,12.113,7.371,12.113h0s-5.48-9.123-5.206-10.9a1.764,1.764,0,0,1,3.006-.815C44.091,304.8,50.169,313.746,50.169,313.746Z" transform="translate(-26.788 -264.313)" fill="#fff"/>
    <path id="Path_1119" data-name="Path 1119" d="M54.727,404.455a11.87,11.87,0,0,1-3.683,4.18c-3.823,2.8-7.855,2.291-11.7.458-4.764-2.273-8.709-11.048-8.77-13.205C30.579,395.888,38.836,416.326,54.727,404.455Z" transform="translate(-26.803 -345.83)" fill="#dee4e9"/>
    <g id="Group_7032" data-name="Group 7032" transform="translate(13.526 14.636)">
      <path id="Path_1120" data-name="Path 1120" d="M182.251,225.359c1.456.326-1.224,10.961-12.088,10.969-10.866-.008-13.546-10.643-12.088-10.969,1.064-.57,5.163,4.541,12.088,4.541C177.219,229.9,181.187,224.789,182.251,225.359Z" transform="translate(-151.354 -211.505)" fill="#3e4347"/>
      <path id="Path_1121" data-name="Path 1121" d="M121.072,125.183a1.521,1.521,0,0,1-1.512-1.381,4.489,4.489,0,0,0-8.977,0,1.52,1.52,0,0,1-3.027-.278,7.523,7.523,0,0,1,15.032,0,1.519,1.519,0,0,1-1.374,1.652C121.165,125.181,121.118,125.183,121.072,125.183Z" transform="translate(-107.55 -116.32)" fill="#3e4347"/>
      <path id="Path_1122" data-name="Path 1122" d="M299.248,125.183a1.521,1.521,0,0,1-1.512-1.381,4.489,4.489,0,0,0-8.977,0,1.52,1.52,0,0,1-3.027-.278,7.522,7.522,0,0,1,15.03,0,1.519,1.519,0,0,1-1.374,1.652Q299.317,125.183,299.248,125.183Z" transform="translate(-263.15 -116.32)" fill="#3e4347"/>
    </g>
  </g>
</svg>
