<svg xmlns="http://www.w3.org/2000/svg" width="48.156" height="48.137" viewBox="0 0 48.156 48.137">
  <g id="_044-noodle" data-name="044-noodle" transform="translate(0 -0.262)">
    <path id="Path_317" data-name="Path 317" d="M67.281,28.158,21.332,23.782V21.594L67.281,25.97Zm0,0" transform="translate(-19.144 -19.144)" fill="#993b17"/>
    <path id="Path_318" data-name="Path 318" d="M25.708,27.612H23.52c0-.615-.237-.878-.774-1.414a3.807,3.807,0,0,1,0-5.923c.536-.536.774-.8.774-1.415s-.237-.878-.774-1.415a3.807,3.807,0,0,1,0-5.923c.536-.536.774-.8.774-1.414s-.237-.878-.774-1.415a3.9,3.9,0,0,1-1.415-2.962A3.9,3.9,0,0,1,22.747,2.77c.536-.536.774-.8.774-1.415V.262h2.188V1.355a3.9,3.9,0,0,1-1.415,2.962c-.536.536-.773.8-.773,1.415s.237.878.773,1.415a3.807,3.807,0,0,1,0,5.923c-.536.536-.773.8-.773,1.414s.237.878.773,1.415a3.807,3.807,0,0,1,0,5.923c-.536.536-.773.8-.773,1.415s.237.878.773,1.414A3.9,3.9,0,0,1,25.708,27.612Zm0,0" transform="translate(-19.144 0)" fill="#fdcf6d"/>
    <path id="Path_319" data-name="Path 319" d="M68.376,27.612H66.188c0-.615-.237-.878-.773-1.414a3.807,3.807,0,0,1,0-5.923c.536-.536.773-.8.773-1.415s-.237-.878-.773-1.415a3.807,3.807,0,0,1,0-5.923c.536-.536.773-.8.773-1.414s-.237-.878-.773-1.415A3.9,3.9,0,0,1,64,5.732,3.9,3.9,0,0,1,65.415,2.77c.536-.536.773-.8.773-1.415V.262h2.188V1.355a3.9,3.9,0,0,1-1.415,2.962c-.536.536-.774.8-.774,1.415s.237.878.774,1.415a3.807,3.807,0,0,1,0,5.923c-.536.536-.774.8-.774,1.414s.237.878.774,1.415a3.807,3.807,0,0,1,0,5.923c-.536.536-.774.8-.774,1.415s.237.878.774,1.414A3.9,3.9,0,0,1,68.376,27.612Zm0,0" transform="translate(-57.436 0)" fill="#fdbc34"/>
    <path id="Path_320" data-name="Path 320" d="M153.708,27.612H151.52c0-.615-.237-.878-.774-1.414a3.807,3.807,0,0,1,0-5.923c.536-.536.774-.8.774-1.415s-.237-.878-.774-1.415a3.807,3.807,0,0,1,0-5.923c.536-.536.774-.8.774-1.414s-.237-.878-.774-1.415a3.9,3.9,0,0,1-1.415-2.962,3.9,3.9,0,0,1,1.415-2.962c.536-.536.774-.8.774-1.415V.262h2.188V1.355a3.9,3.9,0,0,1-1.415,2.962c-.536.536-.773.8-.773,1.415s.237.878.773,1.415a3.807,3.807,0,0,1,0,5.923c-.536.536-.773.8-.773,1.414s.237.878.773,1.415a3.807,3.807,0,0,1,0,5.923c-.536.536-.773.8-.773,1.415s.237.878.773,1.414A3.9,3.9,0,0,1,153.708,27.612Zm0,0" transform="translate(-134.016 0)" fill="#fdbc34"/>
    <path id="Path_321" data-name="Path 321" d="M111.044,27.612h-2.188c0-.615-.237-.878-.774-1.414a3.808,3.808,0,0,1,0-5.923c.536-.536.774-.8.774-1.415s-.237-.878-.774-1.415a3.808,3.808,0,0,1,0-5.923c.536-.536.774-.8.774-1.414s-.237-.878-.774-1.415a3.9,3.9,0,0,1-1.414-2.962,3.9,3.9,0,0,1,1.414-2.962c.536-.536.774-.8.774-1.415V.262h2.188V1.355a3.9,3.9,0,0,1-1.414,2.962c-.536.536-.774.8-.774,1.415s.237.878.774,1.415a3.808,3.808,0,0,1,0,5.923c-.536.536-.774.8-.774,1.414s.237.878.774,1.415a3.808,3.808,0,0,1,0,5.923c-.536.536-.774.8-.774,1.415s.237.878.774,1.414A3.9,3.9,0,0,1,111.044,27.612Zm0,0" transform="translate(-95.728 0)" fill="#fdcf6d"/>
    <path id="Path_322" data-name="Path 322" d="M196.376,27.612h-2.188c0-.615-.237-.878-.773-1.414a3.807,3.807,0,0,1,0-5.923c.536-.536.773-.8.773-1.415s-.237-.878-.773-1.415a3.807,3.807,0,0,1,0-5.923c.536-.536.773-.8.773-1.414s-.237-.878-.773-1.415A3.9,3.9,0,0,1,192,5.732a3.9,3.9,0,0,1,1.415-2.962c.536-.536.773-.8.773-1.415V.262h2.188V1.355a3.9,3.9,0,0,1-1.415,2.962c-.536.536-.774.8-.774,1.415s.237.878.774,1.415a3.807,3.807,0,0,1,0,5.923c-.536.536-.774.8-.774,1.414s.237.878.774,1.415a3.807,3.807,0,0,1,0,5.923c-.536.536-.774.8-.774,1.415s.237.878.774,1.414A3.9,3.9,0,0,1,196.376,27.612Zm0,0" transform="translate(-172.308 0)" fill="#fdcf6d"/>
    <path id="Path_323" data-name="Path 323" d="M239.044,27.612h-2.188c0-.615-.237-.878-.774-1.414a3.808,3.808,0,0,1,0-5.923c.536-.536.774-.8.774-1.415s-.237-.878-.774-1.415a3.808,3.808,0,0,1,0-5.923c.536-.536.774-.8.774-1.414s-.237-.878-.774-1.415a3.9,3.9,0,0,1-1.414-2.962,3.9,3.9,0,0,1,1.414-2.962c.536-.536.774-.8.774-1.415V.262h2.188V1.355a3.9,3.9,0,0,1-1.414,2.962c-.536.536-.774.8-.774,1.415s.237.878.774,1.415a3.808,3.808,0,0,1,0,5.923c-.536.536-.774.8-.774,1.414s.237.878.774,1.415a3.808,3.808,0,0,1,0,5.923c-.536.536-.774.8-.774,1.415s.237.878.774,1.414A3.9,3.9,0,0,1,239.044,27.612Zm0,0" transform="translate(-210.599 0)" fill="#fdbc34"/>
    <path id="Path_324" data-name="Path 324" d="M294.148,111.327a3.261,3.261,0,0,0-1.839.31,3.277,3.277,0,1,0-5.263.892l-9.714,9.714,4.376,4.376,9.723-9.723a3.276,3.276,0,1,0,2.716-5.568Zm0,0" transform="translate(-248.887 -95.724)" fill="#fdcf6d"/>
    <path id="Path_325" data-name="Path 325" d="M314,164.361l-1.547-1.547,10.5-10.5,1.547,1.547a1.069,1.069,0,0,0,.631.321h.021a1.118,1.118,0,0,0,1.2-.949,1.09,1.09,0,0,0-.222-.81,1.072,1.072,0,0,0-.729-.412l.272-2.171a3.281,3.281,0,0,1,2.85,3.665,3.268,3.268,0,0,1-5.567,1.906v0Zm0,0" transform="translate(-280.41 -134.24)" fill="#fdbc34"/>
    <path id="Path_326" data-name="Path 326" d="M397.61,111.637l-1.968-.957a1.073,1.073,0,0,0-.974-1.566v-2.188a3.286,3.286,0,0,1,3.282,3.282A3.253,3.253,0,0,1,397.61,111.637Zm0,0" transform="translate(-354.189 -95.724)" fill="#fdbc34"/>
    <path id="Path_327" data-name="Path 327" d="M226.46,170.926l-.641.641a5.283,5.283,0,0,1-3.735,1.547,8.752,8.752,0,1,0,8.752,8.752,5.282,5.282,0,0,1,1.547-3.735l.643-.643a6.564,6.564,0,0,0-6.564-6.562Zm0,0" transform="translate(-191.452 -153.16)" fill="#a34e2d"/>
    <path id="Path_328" data-name="Path 328" d="M303.48,181.762a5.48,5.48,0,0,1,5.019,5.015l-.305.306a6.342,6.342,0,0,0-1.868,4.508,7.667,7.667,0,0,1-7.658,7.658" transform="translate(-268.035 -162.884)" fill="#a34e2d"/>
    <path id="Path_329" data-name="Path 329" d="M298.668,190.808V188.62a6.571,6.571,0,0,0,6.564-6.564,7.428,7.428,0,0,1,2.111-5.205,4.416,4.416,0,0,0-3.95-3.534l.173-2.18a6.613,6.613,0,0,1,6.024,6.017l.04.5-.663.662a5.251,5.251,0,0,0-1.547,3.735A8.761,8.761,0,0,1,298.668,190.808Zm0,0" transform="translate(-268.035 -153.349)" fill="#993b17"/>
    <path id="Path_330" data-name="Path 330" d="M281.708,27.612H279.52c0-.615-.237-.878-.774-1.414a3.807,3.807,0,0,1,0-5.923c.536-.536.774-.8.774-1.415s-.237-.878-.774-1.415a3.807,3.807,0,0,1,0-5.923c.536-.536.774-.8.774-1.414s-.237-.878-.774-1.415a3.9,3.9,0,0,1-1.415-2.962,3.9,3.9,0,0,1,1.415-2.962c.536-.536.774-.8.774-1.415V.262h2.188V1.355a3.9,3.9,0,0,1-1.415,2.962c-.536.536-.773.8-.773,1.415s.237.878.773,1.415a3.807,3.807,0,0,1,0,5.923c-.536.536-.773.8-.773,1.414s.237.878.773,1.415a3.807,3.807,0,0,1,0,5.923c-.536.536-.773.8-.773,1.415s.237.878.773,1.414A3.9,3.9,0,0,1,281.708,27.612Zm0,0" transform="translate(-248.887 0)" fill="#fdcf6d"/>
    <path id="Path_331" data-name="Path 331" d="M67.281,2.45,21.332,4.638V2.45L67.281.262Zm0,0" transform="translate(-19.144)" fill="#ad6143"/>
    <path id="Path_332" data-name="Path 332" d="M24.069,234.926H0c0,17.5,13.128,19.692,13.128,19.692a4.706,4.706,0,0,0,4.376,4.376H30.633a4.706,4.706,0,0,0,4.376-4.376s13.128-2.188,13.128-19.692Zm0,0" transform="translate(0 -210.596)" fill="#c11107"/>
    <path id="Path_333" data-name="Path 333" d="M241.232,258.994h-6.564v-2.188h6.564a2.559,2.559,0,0,0,2.188-2.188l.006-1.844,1.812-.313c.431-.074,10.264-1.912,11.233-15.347H254.36v-2.188h4.4l-.038,1.131c-.54,16.227-12.594,18.473-13.107,18.561l0,.005A4.673,4.673,0,0,1,241.232,258.994Zm0,0" transform="translate(-210.599 -210.596)" fill="#af0a00"/>
    <path id="Path_334" data-name="Path 334" d="M24.069,254.618S37.2,252.43,37.2,234.926H0c0,17.5,13.128,19.692,13.128,19.692a4.706,4.706,0,0,0,4.376,4.376h2.188A4.706,4.706,0,0,0,24.069,254.618Zm0,0" transform="translate(0 -210.596)" fill="#c82e25"/>
    <path id="Path_335" data-name="Path 335" d="M34.294,280.053c-.986-.185-9.678-2.145-11.087-14.121l2.173-.256c1.226,10.421,8.49,12.072,9.315,12.226Zm0,0" transform="translate(-20.827 -238.192)" fill="#d96c66"/>
    <path id="Path_336" data-name="Path 336" d="M149.332,426.926h8.752v2.188h-8.752Zm0,0" transform="translate(-134.016 -382.903)" fill="#c11107"/>
    <g id="Group_656" data-name="Group 656" transform="translate(26.257 19.954)">
      <path id="Path_337" data-name="Path 337" d="M345.708,194.45a2.188,2.188,0,1,1-2.188-2.188A2.188,2.188,0,0,1,345.708,194.45Zm0,0" transform="translate(-332.58 -192.262)" fill="#993b17"/>
      <path id="Path_338" data-name="Path 338" d="M258.188,214.688a1.094,1.094,0,1,1-1.094-1.094A1.094,1.094,0,0,1,258.188,214.688Zm0,0" transform="translate(-256 -211.406)" fill="#993b17"/>
    </g>
  </g>
</svg>
