<svg xmlns="http://www.w3.org/2000/svg" xmlns:xlink="http://www.w3.org/1999/xlink" width="260" height="260.001" viewBox="0 0 260 260.001">
  <defs>
    <linearGradient id="linear-gradient" x1="0.242" y1="0.928" x2="0.758" y2="0.072" gradientUnits="objectBoundingBox">
      <stop offset="0" stop-color="#ff6900"/>
      <stop offset="0.997" stop-color="#ffa600"/>
      <stop offset="1" stop-color="#ffa400"/>
      <stop offset="1" stop-color="#ffa600"/>
    </linearGradient>
    <linearGradient id="linear-gradient-2" x1="-0.629" y1="1.75" x2="1.442" y2="-0.906" gradientUnits="objectBoundingBox">
      <stop offset="0" stop-color="#ff6900"/>
      <stop offset="1" stop-color="#ffa600"/>
    </linearGradient>
    <linearGradient id="linear-gradient-3" x1="-0.541" y1="2.259" x2="1.339" y2="-0.49" xlink:href="#linear-gradient-2"/>
    <linearGradient id="linear-gradient-4" x1="-0.893" y1="2.521" x2="0.887" y2="-0.115" xlink:href="#linear-gradient-2"/>
    <linearGradient id="linear-gradient-5" x1="0.013" y1="0.927" x2="2.086" y2="-1.728" xlink:href="#linear-gradient-2"/>
    <linearGradient id="linear-gradient-6" x1="-0.342" y1="1.704" x2="1.439" y2="-0.932" xlink:href="#linear-gradient-2"/>
    <linearGradient id="linear-gradient-7" x1="0.042" y1="1.408" x2="1.922" y2="-1.343" xlink:href="#linear-gradient-2"/>
  </defs>
  <g id="Logo_TAKTAK" data-name="Logo TAKTAK" transform="translate(0)">
    <path id="Path_1" data-name="Path 1" d="M231.81,411.613a130,130,0,1,1,130-130A130.147,130.147,0,0,1,231.81,411.613Zm0-253.857A123.856,123.856,0,1,0,355.666,281.612,124,124,0,0,0,231.81,157.756Z" transform="translate(-101.81 -151.612)" fill="url(#linear-gradient)"/>
    <path id="Path_2" data-name="Path 2" d="M172.6,241.558c2.272-1,40.676-1.818,42.039,0s0,22.952,0,22.952H204.186c-1.136,0-1.591,29.124-3.181,31.131s-13.407,1.364-15,0-2.273-27.207-2.273-30.45c-3.863-.227-11.134-.227-11.134-.227S170.328,242.559,172.6,241.558Z" transform="translate(-122.286 -176.857)" fill="url(#linear-gradient-2)"/>
    <path id="Path_3" data-name="Path 3" d="M240.5,296.229c-1.136-1.59,12.725-51.064,14.771-52.946s20.451-1.818,21.815,0,12.1,52.038,11.475,53.068c-.142.2-19.627-.264-19.627-.264s-.023-8.336-.023-9.033c3.839-.937,7.135-4.8,8.044-8.435,1.25-5.795-2.786-24.656-11.326-24.656s-11.94,19.77-10.717,25.122c.837,3.624,4.159,6.517,7.858,8.055l-.025,9.1S243.835,296.229,240.5,296.229Z" transform="translate(-142.052 -177.394)" fill="url(#linear-gradient-3)"/>
    <path id="Path_4" data-name="Path 4" d="M329.9,242.931c-1.717,2.272.783,52.038,2.6,52.946s18.179,2.045,19.315,0-1.59-15,0-16.134,4.318,15.452,6.59,17.043,16.589,1.59,18.407-.909-11.135-23.633-10.907-27.041,14.259-24.656,14.259-25.848-16.986-1.648-19.258-.057c0,0-6.362,18.406-8.408,18.633s0-18.633-1.136-19.77S331.619,240.658,329.9,242.931Z" transform="translate(-167.412 -176.989)" fill="url(#linear-gradient-4)"/>
    <path id="Path_5" data-name="Path 5" d="M172.6,349.985c2.272-1,40.676-1.818,42.039,0s0,22.951,0,22.951H204.186c-1.136,0-1.591,29.124-3.181,31.132s-13.407,1.363-15,0-2.273-27.207-2.273-30.45c-3.863-.227-11.134-.227-11.134-.227S170.328,350.986,172.6,349.985Z" transform="translate(-122.286 -207.657)" fill="url(#linear-gradient-5)"/>
    <path id="Path_6" data-name="Path 6" d="M329.9,351.357c-1.717,2.272.783,52.038,2.6,52.947s18.179,2.045,19.315,0-1.59-15,0-16.134,4.318,15.453,6.59,17.043S375,406.8,376.815,404.3s-11.135-23.633-10.907-27.042,14.259-24.656,14.259-25.848-16.986-1.647-19.258-.057c0,0-6.362,18.407-8.408,18.633s0-18.633-1.136-19.77S331.619,349.085,329.9,351.357Z" transform="translate(-167.412 -207.756)" fill="url(#linear-gradient-6)"/>
    <path id="Path_7" data-name="Path 7" d="M277.088,351.708c-1.364-1.818-19.77-1.883-21.815,0s-15.907,51.356-14.771,52.947l22.7.057a18.155,18.155,0,0,0-.17-4.034c-.777-2.84-5.113-3.456-6.59-7.068C254.8,388.748,257.867,367.9,259,364.6c.462-1.474.966-1.526,1.051-.167,0,2.042-.512,18.15-.171,20.537.426,1.448,1.815.824,1.79.194.125-.94.9-19.8.937-20.833.095-1.553,1.184-1.2,1.222-.106.17,1.494.2,17.863.411,20.758a1.125,1.125,0,0,0,2.245.115c0-1.137.127-17.828.468-20.726.085-1.729,1.25-.849,1.214.082.113,1.267.7,18.2,1,20.43.512,1.534,1.875.852,1.989.114s-.323-18.443-.171-20.658c.181-1.248.541-.733.966.093.966,2.1,4.374,21.587,2.925,28.114-1.221,3.075-5.141,4.722-6.306,8.1a13.335,13.335,0,0,0-.142,4.077l20.129.05C289.188,403.746,278.451,353.526,277.088,351.708Z" transform="translate(-142.052 -208.365)" fill="url(#linear-gradient-7)"/>
  </g>
</svg>
